<svg width="32" height="32" viewBox="0 0 32 32" fill="none" xmlns="http://www.w3.org/2000/svg">
<g filter="url(#filter0_d_3438_6732)">
<rect x="4" y="2" width="24" height="24" rx="12" fill="#022A68" shape-rendering="crispEdges"/>
<path d="M21 8.5H11C10.7348 8.5 10.4804 8.60536 10.2929 8.79289C10.1054 8.98043 10 9.23478 10 9.5V13C10 16.295 11.595 18.2919 12.9331 19.3869C14.3744 20.5656 15.8081 20.9656 15.8706 20.9825C15.9566 21.0059 16.0472 21.0059 16.1331 20.9825C16.1956 20.9656 17.6275 20.5656 19.0706 19.3869C20.405 18.2919 22 16.295 22 13V9.5C22 9.23478 21.8946 8.98043 21.7071 8.79289C21.5196 8.60536 21.2652 8.5 21 8.5ZM18.855 12.8538L15.355 16.3538C15.3086 16.4002 15.2534 16.4371 15.1927 16.4623C15.132 16.4874 15.067 16.5004 15.0012 16.5004C14.9355 16.5004 14.8705 16.4874 14.8098 16.4623C14.7491 16.4371 14.6939 16.4002 14.6475 16.3538L13.1475 14.8538C13.0537 14.7599 13.001 14.6327 13.001 14.5C13.001 14.3673 13.0537 14.2401 13.1475 14.1462C13.2413 14.0524 13.3686 13.9997 13.5012 13.9997C13.6339 13.9997 13.7612 14.0524 13.855 14.1462L15 15.2931L18.1462 12.1462C18.1927 12.0998 18.2479 12.0629 18.3086 12.0378C18.3692 12.0127 18.4343 11.9997 18.5 11.9997C18.5657 11.9997 18.6308 12.0127 18.6914 12.0378C18.7521 12.0629 18.8073 12.0998 18.8538 12.1462C18.9002 12.1927 18.9371 12.2479 18.9622 12.3086C18.9873 12.3692 19.0003 12.4343 19.0003 12.5C19.0003 12.5657 18.9873 12.6308 18.9622 12.6914C18.9371 12.7521 18.9002 12.8073 18.8538 12.8538H18.855Z" fill="#F7F7F7"/>
</g>
<defs>
<filter id="filter0_d_3438_6732" x="0" y="0" width="32" height="32" filterUnits="userSpaceOnUse" color-interpolation-filters="sRGB">
<feFlood flood-opacity="0" result="BackgroundImageFix"/>
<feColorMatrix in="SourceAlpha" type="matrix" values="0 0 0 0 0 0 0 0 0 0 0 0 0 0 0 0 0 0 127 0" result="hardAlpha"/>
<feOffset dy="2"/>
<feGaussianBlur stdDeviation="2"/>
<feComposite in2="hardAlpha" operator="out"/>
<feColorMatrix type="matrix" values="0 0 0 0 0 0 0 0 0 0 0 0 0 0 0 0 0 0 0.2 0"/>
<feBlend mode="normal" in2="BackgroundImageFix" result="effect1_dropShadow_3438_6732"/>
<feBlend mode="normal" in="SourceGraphic" in2="effect1_dropShadow_3438_6732" result="shape"/>
</filter>
</defs>
</svg>
