<svg width="48" height="48" viewBox="0 0 48 48" fill="none" xmlns="http://www.w3.org/2000/svg">
<rect width="48" height="48" rx="16" fill="#FEF2F2"/>
<path d="M24 14.25C22.0716 14.25 20.1866 14.8218 18.5832 15.8932C16.9798 16.9645 15.7301 18.4873 14.9922 20.2688C14.2542 22.0504 14.0611 24.0108 14.4373 25.9021C14.8136 27.7934 15.7422 29.5307 17.1057 30.8943C18.4693 32.2579 20.2066 33.1865 22.0979 33.5627C23.9892 33.9389 25.9496 33.7458 27.7312 33.0078C29.5127 32.2699 31.0355 31.0202 32.1068 29.4168C33.1782 27.8134 33.75 25.9284 33.75 24C33.7473 21.415 32.7192 18.9366 30.8913 17.1087C29.0634 15.2808 26.585 14.2527 24 14.25ZM27.5306 26.4694C27.6003 26.5391 27.6556 26.6218 27.6933 26.7128C27.731 26.8039 27.7504 26.9015 27.7504 27C27.7504 27.0985 27.731 27.1961 27.6933 27.2872C27.6556 27.3782 27.6003 27.4609 27.5306 27.5306C27.4609 27.6003 27.3782 27.6556 27.2872 27.6933C27.1961 27.731 27.0986 27.7504 27 27.7504C26.9015 27.7504 26.8039 27.731 26.7128 27.6933C26.6218 27.6556 26.5391 27.6003 26.4694 27.5306L24 25.0603L21.5306 27.5306C21.4609 27.6003 21.3782 27.6556 21.2872 27.6933C21.1961 27.731 21.0986 27.7504 21 27.7504C20.9015 27.7504 20.8039 27.731 20.7128 27.6933C20.6218 27.6556 20.5391 27.6003 20.4694 27.5306C20.3997 27.4609 20.3444 27.3782 20.3067 27.2872C20.269 27.1961 20.2496 27.0985 20.2496 27C20.2496 26.9015 20.269 26.8039 20.3067 26.7128C20.3444 26.6218 20.3997 26.5391 20.4694 26.4694L22.9397 24L20.4694 21.5306C20.3286 21.3899 20.2496 21.199 20.2496 21C20.2496 20.801 20.3286 20.6101 20.4694 20.4694C20.6101 20.3286 20.801 20.2496 21 20.2496C21.199 20.2496 21.3899 20.3286 21.5306 20.4694L24 22.9397L26.4694 20.4694C26.5391 20.3997 26.6218 20.3444 26.7128 20.3067C26.8039 20.269 26.9015 20.2496 27 20.2496C27.0986 20.2496 27.1961 20.269 27.2872 20.3067C27.3782 20.3444 27.4609 20.3997 27.5306 20.4694C27.6003 20.5391 27.6556 20.6218 27.6933 20.7128C27.731 20.8039 27.7504 20.9015 27.7504 21C27.7504 21.0985 27.731 21.1961 27.6933 21.2872C27.6556 21.3782 27.6003 21.4609 27.5306 21.5306L25.0603 24L27.5306 26.4694Z" fill="#FB2C36"/>
</svg>
