<svg width="323" height="72" viewBox="0 0 323 72" fill="none" xmlns="http://www.w3.org/2000/svg">
<path d="M18.0459 17.432C18.4059 17.432 18.5259 17.912 18.5259 18.704C18.5259 19.496 18.4059 20 18.0459 20H17.9739C16.7979 20 15.8139 19.736 14.9979 19.232C14.1819 22.544 11.6619 24.944 7.84588 24.944C3.11788 24.944 0.381875 21.224 0.381875 16.76C0.381875 15.848 0.501875 14.864 0.717875 13.904L3.42988 14.312C3.26188 15.176 3.14188 16.064 3.14188 16.832C3.14188 20.12 4.98988 22.376 7.84588 22.376C10.7019 22.376 12.5499 20.12 12.5499 16.808V2.216H15.3099V16.712V16.76C15.7659 17.192 16.4139 17.432 17.2299 17.432H18.0459ZM22.2067 17.432C22.5667 17.432 22.6867 17.912 22.6867 18.704C22.6867 19.496 22.5667 20 22.2067 20H18.0547C17.6947 20 17.5747 19.496 17.5747 18.704C17.5747 17.912 17.6947 17.432 18.0547 17.432H22.2067ZM26.3551 17.432C26.7151 17.432 26.8351 17.912 26.8351 18.704C26.8351 19.496 26.7151 20 26.3551 20H22.2031C21.8431 20 21.7231 19.496 21.7231 18.704C21.7231 17.912 21.8431 17.432 22.2031 17.432H26.3551ZM42.2876 17.432C42.6476 17.432 42.7676 17.912 42.7676 18.704C42.7676 19.496 42.6476 20 42.2876 20H26.3516C25.9916 20 25.8716 19.496 25.8716 18.704C25.8716 17.912 25.9916 17.432 26.3516 17.432H35.8796V13.784C35.8796 11.336 34.1756 9.8 31.6076 9.8C30.0716 9.8 28.7996 10.28 27.6236 11.12L26.4236 8.768C27.9596 7.76 29.7356 7.232 31.6076 7.232C35.7116 7.232 38.6396 9.944 38.6396 13.784V17.432H42.2876ZM31.4396 21.92C32.3516 21.92 33.0476 22.616 33.0476 23.576C33.0476 24.536 32.3516 25.256 31.4396 25.256C30.5276 25.256 29.8316 24.536 29.8316 23.576C29.8316 22.616 30.5276 21.92 31.4396 21.92ZM65.3291 17.432C65.6891 17.432 65.8091 17.912 65.8091 18.704C65.8091 19.496 65.6891 20 65.3291 20H64.0091C62.6411 20 61.5131 19.64 60.6491 18.968C59.8811 19.664 58.7771 20 57.2891 20C55.8011 20 54.6491 19.64 53.8091 18.968C53.0411 19.664 51.9371 20 50.4491 20C48.9611 20 47.8091 19.64 46.9691 18.968C46.1771 19.664 45.0491 20 43.4891 20H42.2891C41.9291 20 41.8091 19.496 41.8091 18.704C41.8091 17.912 41.9291 17.432 42.2891 17.432H43.2731C45.0491 17.432 45.5291 16.784 45.5291 15.128V10.712H48.2891V15.152C48.2891 15.872 48.2171 16.496 48.0731 17.048C48.5531 17.312 49.1771 17.432 49.9931 17.432C51.8891 17.432 52.3691 16.832 52.3691 15.128V9.512H55.1291V15.152C55.1291 15.872 55.0571 16.496 54.9131 17.048C55.3931 17.312 56.0171 17.432 56.8331 17.432C58.7291 17.432 59.2091 16.832 59.2091 15.128V8.312H61.9691V15.152C61.9691 15.872 61.8971 16.496 61.7531 17.072C62.1611 17.312 62.6651 17.432 63.2651 17.432H65.3291ZM67.3681 6.656C66.5521 6.656 65.9041 6.008 65.9041 5.144C65.9041 4.256 66.5521 3.632 67.3681 3.632C68.2081 3.632 68.8321 4.256 68.8321 5.144C68.8321 6.008 68.2081 6.656 67.3681 6.656ZM71.1601 3.632C72.0001 3.632 72.6241 4.256 72.6241 5.144C72.6241 6.008 72.0001 6.656 71.1601 6.656C70.3441 6.656 69.6961 6.008 69.6961 5.144C69.6961 4.256 70.3441 3.632 71.1601 3.632ZM67.8721 17.432V8.336H70.6321V20H65.3281C64.9681 20 64.8481 19.496 64.8481 18.704C64.8481 17.912 64.9681 17.432 65.3281 17.432H67.8721ZM102.013 17.432C102.373 17.432 102.493 17.912 102.493 18.704C102.493 19.496 102.373 20 102.013 20H100.693C99.3253 20 98.1973 19.64 97.3333 18.968C96.5653 19.664 95.4133 20 93.8533 20H85.2613C81.9013 20 79.9813 17.96 79.9813 14.696C79.9813 12.464 80.8933 10.904 82.4293 9.608L84.6613 11.168C83.3173 12.32 82.7413 13.376 82.7413 14.672C82.7413 16.328 83.7013 17.432 85.4773 17.432H93.6373C95.4133 17.432 95.8933 16.76 95.8933 15.128V8.336H98.6533V15.152C98.6533 15.872 98.5813 16.52 98.4373 17.072C98.8453 17.312 99.3493 17.432 99.9493 17.432H102.013ZM89.4373 21.92C90.3493 21.92 91.0453 22.616 91.0453 23.576C91.0453 24.536 90.3493 25.256 89.4373 25.256C88.5253 25.256 87.8293 24.536 87.8293 23.576C87.8293 22.616 88.5253 21.92 89.4373 21.92ZM106.16 17.432C106.52 17.432 106.64 17.912 106.64 18.704C106.64 19.496 106.52 20 106.16 20H102.008C101.648 20 101.528 19.496 101.528 18.704C101.528 17.912 101.648 17.432 102.008 17.432H106.16ZM110.308 17.432C110.668 17.432 110.788 17.912 110.788 18.704C110.788 19.496 110.668 20 110.308 20H106.156C105.796 20 105.676 19.496 105.676 18.704C105.676 17.912 105.796 17.432 106.156 17.432H110.308ZM112.849 8.336H115.609V20H110.305C109.945 20 109.825 19.496 109.825 18.704C109.825 17.912 109.945 17.432 110.305 17.432H112.849V8.336ZM114.001 21.92C114.913 21.92 115.609 22.616 115.609 23.576C115.609 24.536 114.913 25.256 114.001 25.256C113.089 25.256 112.393 24.536 112.393 23.576C112.393 22.616 113.089 21.92 114.001 21.92ZM125.065 17.432C125.425 17.432 125.545 17.912 125.545 18.704C125.545 19.496 125.425 20 125.065 20H119.449V2.216H122.209V17.432H125.065ZM129.222 17.432C129.582 17.432 129.702 17.912 129.702 18.704C129.702 19.496 129.582 20 129.222 20H125.07C124.71 20 124.59 19.496 124.59 18.704C124.59 17.912 124.71 17.432 125.07 17.432H129.222ZM141.507 17.432H142.515L142.131 20H129.219C128.859 20 128.739 19.496 128.739 18.704C128.739 17.912 128.859 17.432 129.219 17.432H138.747V13.784C138.747 11.336 137.043 9.8 134.475 9.8C132.939 9.8 131.667 10.28 130.491 11.12L129.291 8.768C130.827 7.76 132.603 7.232 134.475 7.232C138.579 7.232 141.507 9.944 141.507 13.784V17.432ZM176.188 17.432C176.548 17.432 176.668 17.912 176.668 18.704C176.668 19.496 176.548 20 176.188 20H171.244V20.288C171.244 23.6 168.196 25.52 161.236 25.52C155.212 25.52 151.132 23.984 151.132 19.064C151.132 18.128 151.276 16.496 151.612 15.128L154.3 15.752C154.06 16.664 153.892 18.104 153.892 19.016C153.892 21.872 155.716 22.952 161.26 22.952C166.276 22.952 168.1 22.064 168.1 20.504C168.1 20.312 168.076 20.144 168.028 20H167.716C165.844 20 164.404 19.496 163.468 18.536L165.388 16.712C165.892 17.216 166.492 17.432 167.716 17.432H170.74V2.216H173.5V17.432H176.188ZM159.532 27.032C160.372 27.032 160.996 27.656 160.996 28.544C160.996 29.408 160.372 30.056 159.532 30.056C158.716 30.056 158.068 29.408 158.068 28.544C158.068 27.656 158.716 27.032 159.532 27.032ZM163.324 27.032C164.164 27.032 164.788 27.656 164.788 28.544C164.788 29.408 164.164 30.056 163.324 30.056C162.508 30.056 161.86 29.408 161.86 28.544C161.86 27.656 162.508 27.032 163.324 27.032ZM178.036 2.216H180.796V20H176.188C175.827 20 175.707 19.496 175.707 18.704C175.707 17.912 175.827 17.432 176.188 17.432H178.036V2.216ZM184.887 20V2.216H187.647V20H184.887ZM201.529 5.768C200.713 5.768 200.065 5.12 200.065 4.256C200.065 3.368 200.713 2.744 201.529 2.744C202.369 2.744 202.993 3.368 202.993 4.256C202.993 5.12 202.369 5.768 201.529 5.768ZM205.321 5.768C204.505 5.768 203.857 5.12 203.857 4.256C203.857 3.368 204.505 2.744 205.321 2.744C206.161 2.744 206.785 3.368 206.785 4.256C206.785 5.12 206.161 5.768 205.321 5.768ZM203.425 20C199.873 20 197.233 17.432 197.233 14.144C197.233 10.64 200.305 7.496 203.425 7.496C206.545 7.496 209.617 10.64 209.617 14.144C209.617 17.432 206.977 20 203.425 20ZM203.425 17.432C205.417 17.432 206.857 16.064 206.857 14.144C206.857 12.128 205.033 10.064 203.425 10.064C201.817 10.064 199.993 12.128 199.993 14.144C199.993 16.064 201.433 17.432 203.425 17.432ZM215.263 5.96C220.927 7.28 224.479 12.08 224.527 18.512C222.295 19.472 219.559 20 216.583 20C214.951 20 213.415 19.832 212.023 19.544V16.904C213.511 17.264 214.951 17.432 216.607 17.432C218.431 17.432 220.087 17.216 221.647 16.784C221.071 12.632 218.671 9.392 214.639 8.456L215.263 5.96ZM233.51 17.432C233.87 17.432 233.99 17.912 233.99 18.704C233.99 19.496 233.87 20 233.51 20H227.894V2.216H230.654V17.432H233.51ZM237.668 17.432C238.028 17.432 238.148 17.912 238.148 18.704C238.148 19.496 238.028 20 237.668 20H233.516C233.156 20 233.036 19.496 233.036 18.704C233.036 17.912 233.156 17.432 233.516 17.432H237.668ZM241.816 17.432C242.176 17.432 242.296 17.912 242.296 18.704C242.296 19.496 242.176 20 241.816 20H237.664C237.304 20 237.184 19.496 237.184 18.704C237.184 17.912 237.304 17.432 237.664 17.432H241.816ZM245.965 17.432C246.325 17.432 246.445 17.912 246.445 18.704C246.445 19.496 246.325 20 245.965 20H241.812C241.452 20 241.332 19.496 241.332 18.704C241.332 17.912 241.452 17.432 241.812 17.432H245.965ZM251.889 14.552C251.889 17.024 252.633 18.92 254.001 20.096L252.465 22.328C251.025 20.72 250.401 20 247.065 20H245.961C245.601 20 245.481 19.496 245.481 18.704C245.481 17.912 245.601 17.432 245.961 17.432H247.305C248.073 17.432 248.793 17.504 249.465 17.624C249.249 16.76 249.129 15.8 249.129 14.816V2.216H251.889V14.552ZM258.082 20V2.216H260.842V20H258.082ZM285.285 17.432C285.645 17.432 285.765 17.912 285.765 18.704C285.765 19.496 285.645 20 285.285 20H282.501V20.048C282.501 23.432 280.557 25.4 277.365 25.448L276.933 22.856C278.901 22.976 279.741 22.16 279.741 20.048V20H277.077C273.429 20 270.429 17.288 270.429 13.808C270.429 10.352 273.429 7.616 277.077 7.616C278.757 7.616 280.797 8.264 282.357 9.272L282.501 9.32V17.432H285.285ZM277.149 17.432H279.741V10.808C278.949 10.448 278.085 10.184 277.149 10.184C274.821 10.184 273.189 11.84 273.189 13.808C273.189 15.8 274.821 17.432 277.149 17.432ZM289.441 17.432C289.801 17.432 289.921 17.912 289.921 18.704C289.921 19.496 289.801 20 289.441 20H285.289C284.929 20 284.809 19.496 284.809 18.704C284.809 17.912 284.929 17.432 285.289 17.432H289.441ZM293.59 17.432C293.95 17.432 294.07 17.912 294.07 18.704C294.07 19.496 293.95 20 293.59 20H289.438C289.077 20 288.957 19.496 288.957 18.704C288.957 17.912 289.077 17.432 289.438 17.432H293.59ZM297.738 17.432C298.098 17.432 298.218 17.912 298.218 18.704C298.218 19.496 298.098 20 297.738 20H293.586C293.226 20 293.106 19.496 293.106 18.704C293.106 17.912 293.226 17.432 293.586 17.432H297.738ZM301.886 17.432C302.246 17.432 302.366 17.912 302.366 18.704C302.366 19.496 302.246 20 301.886 20H297.734C297.374 20 297.254 19.496 297.254 18.704C297.254 17.912 297.374 17.432 297.734 17.432H301.886ZM313.283 3.44C312.491 3.44 311.939 2.888 311.939 2.072C311.939 1.256 312.491 0.655999 313.283 0.655999C314.075 0.655999 314.627 1.256 314.627 2.072C314.627 2.888 314.075 3.44 313.283 3.44ZM311.387 6.752C310.571 6.752 309.923 6.128 309.923 5.24C309.923 4.376 310.571 3.728 311.387 3.728C312.227 3.728 312.851 4.376 312.851 5.24C312.851 6.128 312.227 6.752 311.387 6.752ZM313.715 5.24C313.715 4.376 314.363 3.728 315.179 3.728C316.019 3.728 316.643 4.376 316.643 5.24C316.643 6.128 316.019 6.752 315.179 6.752C314.363 6.752 313.715 6.128 313.715 5.24ZM318.803 8.312H321.563V15.152C321.563 18.368 320.123 20 316.883 20C315.395 20 314.243 19.64 313.403 18.968C312.635 19.664 311.531 20 310.043 20C308.555 20 307.403 19.64 306.563 18.968C305.771 19.664 304.643 20 303.083 20H301.883C301.523 20 301.403 19.496 301.403 18.704C301.403 17.912 301.523 17.432 301.883 17.432H302.867C304.643 17.432 305.123 16.784 305.123 15.128V10.712H307.883V15.152C307.883 15.872 307.811 16.496 307.667 17.048C308.147 17.312 308.771 17.432 309.587 17.432C311.483 17.432 311.963 16.832 311.963 15.128V9.512H314.723V15.152C314.723 15.872 314.651 16.496 314.507 17.048C314.987 17.312 315.611 17.432 316.427 17.432C318.323 17.432 318.803 16.832 318.803 15.128V8.312ZM112.885 52.096L110.725 52.12C110.653 50.488 109.717 49.672 108.157 49.672C106.669 49.672 105.709 50.32 105.709 51.736C105.709 54.64 109.453 54.64 109.453 58.528H107.341C107.341 55.288 103.117 55.12 103.117 51.328C103.117 48.712 105.061 47.32 107.917 47.32C110.893 47.32 112.813 49.048 112.885 52.096ZM108.421 61.048C109.285 61.048 109.933 61.696 109.933 62.608C109.933 63.544 109.285 64.216 108.421 64.216C107.557 64.216 106.909 63.544 106.909 62.608C106.909 61.696 107.557 61.048 108.421 61.048ZM209.242 53.056C208.33 53.056 207.634 52.336 207.634 51.376C207.634 50.416 208.33 49.72 209.242 49.72C210.154 49.72 210.85 50.416 210.85 51.376C210.85 52.336 210.154 53.056 209.242 53.056ZM209.338 68.944C204.61 68.944 201.874 65.296 201.874 60.832C201.874 59.512 202.138 58.048 202.522 56.728L205.018 57.976C204.778 59.008 204.634 60.04 204.634 60.904C204.634 64.12 206.482 66.376 209.338 66.376C212.194 66.376 214.042 64.144 214.042 60.904C214.042 59.416 213.658 57.424 213.058 56.008L215.506 54.712C216.298 56.44 216.802 58.816 216.802 60.784C216.802 65.296 214.066 68.944 209.338 68.944ZM226.128 61.432C226.488 61.432 226.608 61.912 226.608 62.704C226.608 63.496 226.488 64 226.128 64H220.512V46.216H223.272V61.432H226.128ZM237.533 47.44C236.741 47.44 236.189 46.888 236.189 46.072C236.189 45.256 236.741 44.656 237.533 44.656C238.325 44.656 238.877 45.256 238.877 46.072C238.877 46.888 238.325 47.44 237.533 47.44ZM235.637 50.752C234.821 50.752 234.173 50.128 234.173 49.24C234.173 48.376 234.821 47.728 235.637 47.728C236.477 47.728 237.101 48.376 237.101 49.24C237.101 50.128 236.477 50.752 235.637 50.752ZM237.965 49.24C237.965 48.376 238.613 47.728 239.429 47.728C240.269 47.728 240.893 48.376 240.893 49.24C240.893 50.128 240.269 50.752 239.429 50.752C238.613 50.752 237.965 50.128 237.965 49.24ZM249.173 61.432C249.533 61.432 249.653 61.912 249.653 62.704C249.653 63.496 249.533 64 249.173 64H247.853C246.485 64 245.357 63.64 244.493 62.968C243.725 63.664 242.621 64 241.133 64C239.645 64 238.493 63.64 237.653 62.968C236.885 63.664 235.781 64 234.293 64C232.805 64 231.653 63.64 230.813 62.968C230.021 63.664 228.893 64 227.333 64H226.133C225.773 64 225.653 63.496 225.653 62.704C225.653 61.912 225.773 61.432 226.133 61.432H227.117C228.893 61.432 229.373 60.784 229.373 59.128V54.712H232.133V59.152C232.133 59.872 232.061 60.496 231.917 61.048C232.397 61.312 233.021 61.432 233.837 61.432C235.733 61.432 236.213 60.832 236.213 59.128V53.512H238.973V59.152C238.973 59.872 238.901 60.496 238.757 61.048C239.237 61.312 239.861 61.432 240.677 61.432C242.573 61.432 243.053 60.832 243.053 59.128V52.312H245.813V59.152C245.813 59.872 245.741 60.496 245.597 61.072C246.005 61.312 246.509 61.432 247.109 61.432H249.173ZM256.66 51.232C260.764 51.232 264.316 56.176 264.052 62.464C261.724 63.52 258.94 64 257.044 64C255.772 64 254.26 63.784 252.556 63.016C251.788 63.64 250.756 64 249.508 64H249.172C248.812 64 248.692 63.496 248.692 62.704C248.692 61.912 248.812 61.432 249.172 61.432H249.508C250.516 61.432 251.116 60.976 251.284 59.872C251.5 58.504 251.668 51.232 256.66 51.232ZM253.948 60.736C254.98 61.216 255.94 61.432 257.068 61.432C258.34 61.432 259.852 61.168 261.268 60.736C260.908 56.968 258.772 53.8 256.78 53.8C254.284 53.8 254.308 58.744 254.02 60.376L253.948 60.736ZM279.073 61.432C279.433 61.432 279.553 61.912 279.553 62.704C279.553 63.496 279.433 64 279.073 64H273.457V46.216H276.217V61.432H279.073ZM283.23 61.432C283.59 61.432 283.71 61.912 283.71 62.704C283.71 63.496 283.59 64 283.23 64H279.078C278.718 64 278.598 63.496 278.598 62.704C278.598 61.912 278.718 61.432 279.078 61.432H283.23ZM299.235 61.432C299.595 61.432 299.715 61.912 299.715 62.704C299.715 63.496 299.595 64 299.235 64H298.851C296.379 64 296.715 66.304 296.667 69.736L294.147 71.272C291.075 71.272 287.739 68.584 286.443 64H283.227C282.867 64 282.747 63.496 282.747 62.704C282.747 61.912 282.867 61.432 283.227 61.432H285.939C285.891 60.904 285.867 60.352 285.867 59.776C285.867 54.256 288.459 51.4 291.003 51.4C293.523 51.4 296.139 54.28 296.139 59.776C296.139 60.616 296.067 61.384 295.971 62.152C296.667 61.696 297.603 61.432 298.851 61.432H299.235ZM288.627 59.8C288.627 60.352 288.675 60.904 288.723 61.432H293.283C293.355 60.928 293.379 60.4 293.379 59.872C293.379 56.44 292.059 53.968 291.003 53.968C289.923 53.968 288.627 56.464 288.627 59.8ZM289.347 64C290.211 66.424 291.747 68.2 293.427 68.608L293.907 68.32C293.907 66.928 293.931 65.32 294.459 64H289.347ZM308.618 61.432C308.978 61.432 309.098 61.912 309.098 62.704C309.098 63.496 308.978 64 308.618 64H307.298C305.93 64 304.802 63.64 303.938 62.968C303.17 63.664 302.018 64 300.458 64H299.234C298.874 64 298.754 63.496 298.754 62.704C298.754 61.912 298.874 61.432 299.234 61.432H300.242C302.018 61.432 302.498 60.76 302.498 59.128V52.336H305.258V59.152C305.258 59.872 305.186 60.52 305.042 61.072C305.45 61.312 305.954 61.432 306.554 61.432H308.618ZM301.994 65.848C302.834 65.848 303.458 66.472 303.458 67.36C303.458 68.224 302.834 68.872 301.994 68.872C301.178 68.872 300.53 68.224 300.53 67.36C300.53 66.472 301.178 65.848 301.994 65.848ZM305.786 65.848C306.626 65.848 307.25 66.472 307.25 67.36C307.25 68.224 306.626 68.872 305.786 68.872C304.97 68.872 304.322 68.224 304.322 67.36C304.322 66.472 304.97 65.848 305.786 65.848ZM317.129 49.576C316.217 49.576 315.521 48.856 315.521 47.896C315.521 46.936 316.217 46.24 317.129 46.24C318.041 46.24 318.737 46.936 318.737 47.896C318.737 48.856 318.041 49.576 317.129 49.576ZM317.105 51.616C318.905 51.616 320.705 52.264 322.049 52.936V64H308.609C308.249 64 308.129 63.496 308.129 62.704C308.129 61.912 308.249 61.432 308.609 61.432H311.513C310.841 60.472 310.433 59.296 310.433 57.976C310.433 54.304 313.409 51.616 317.105 51.616ZM313.193 57.952C313.193 59.704 314.273 61.024 316.001 61.432H319.289V54.568C318.449 54.304 317.753 54.184 317.129 54.184C314.849 54.184 313.193 55.792 313.193 57.952Z" fill="#F7F7F7"/>
<path d="M121.221 61.432C121.581 61.432 121.701 61.912 121.701 62.704C121.701 63.496 121.581 64 121.221 64H115.605V46.216H118.365V61.432H121.221ZM125.379 61.432C125.739 61.432 125.859 61.912 125.859 62.704C125.859 63.496 125.739 64 125.379 64H121.227C120.867 64 120.747 63.496 120.747 62.704C120.747 61.912 120.867 61.432 121.227 61.432H125.379ZM129.527 61.432C129.887 61.432 130.007 61.912 130.007 62.704C130.007 63.496 129.887 64 129.527 64H125.375C125.015 64 124.895 63.496 124.895 62.704C124.895 61.912 125.015 61.432 125.375 61.432H129.527ZM140.803 52.432C144.499 54.136 146.371 56.224 146.179 60.616L146.035 64H129.523C129.163 64 129.043 63.496 129.043 62.704C129.043 61.912 129.163 61.432 129.523 61.432H132.043C131.659 60.184 131.443 58.84 131.443 57.688C131.443 55.528 132.187 53.776 133.411 52.672L131.683 52.216L132.379 49.744C136.723 50.872 138.739 51.448 140.803 52.432ZM134.203 57.688C134.203 58.912 134.491 60.328 134.899 61.432H138.955V57.256C138.955 55.408 138.163 53.968 136.723 53.968C135.235 53.968 134.203 55.432 134.203 57.688ZM143.419 60.496C143.515 58.288 143.059 56.944 141.595 55.864C141.667 56.296 141.715 56.776 141.715 57.256V61.432H143.371L143.419 60.496ZM154.408 61.432C154.768 61.432 154.888 61.912 154.888 62.704C154.888 63.496 154.768 64 154.408 64H151.768V64.048C151.768 67.432 149.824 69.4 146.632 69.448L146.2 66.856C148.168 66.976 149.008 66.16 149.008 64.048V52.336H151.768V61.432H154.408ZM158.566 61.432C158.926 61.432 159.046 61.912 159.046 62.704C159.046 63.496 158.926 64 158.566 64H154.414C154.054 64 153.934 63.496 153.934 62.704C153.934 61.912 154.054 61.432 154.414 61.432H158.566ZM171.451 61.432C171.811 61.432 171.931 61.912 171.931 62.704C171.931 63.496 171.811 64 171.451 64H158.562C158.202 64 158.082 63.496 158.082 62.704C158.082 61.912 158.202 61.432 158.562 61.432H165.715V61.24C165.715 57.568 164.083 55.432 161.155 55.432L159.427 53.608L165.667 47.296L167.395 49.096L163.459 53.104C166.507 54.04 168.475 57.112 168.475 61.432H171.451ZM187.461 61.432C187.821 61.432 187.941 61.912 187.941 62.704C187.941 63.496 187.821 64 187.461 64H187.077C184.605 64 184.941 66.304 184.893 69.736L182.373 71.272C179.301 71.272 175.965 68.584 174.669 64H171.453C171.093 64 170.973 63.496 170.973 62.704C170.973 61.912 171.093 61.432 171.453 61.432H174.165C174.117 60.904 174.093 60.352 174.093 59.776C174.093 54.256 176.685 51.4 179.229 51.4C181.749 51.4 184.365 54.28 184.365 59.776C184.365 60.616 184.293 61.384 184.197 62.152C184.893 61.696 185.829 61.432 187.077 61.432H187.461ZM176.853 59.8C176.853 60.352 176.901 60.904 176.949 61.432H181.509C181.581 60.928 181.605 60.4 181.605 59.872C181.605 56.44 180.285 53.968 179.229 53.968C178.149 53.968 176.853 56.464 176.853 59.8ZM177.573 64C178.437 66.424 179.973 68.2 181.653 68.608L182.133 68.32C182.133 66.928 182.157 65.32 182.685 64H177.573ZM189.501 50.656C188.685 50.656 188.037 50.008 188.037 49.144C188.037 48.256 188.685 47.632 189.501 47.632C190.341 47.632 190.965 48.256 190.965 49.144C190.965 50.008 190.341 50.656 189.501 50.656ZM193.293 47.632C194.133 47.632 194.757 48.256 194.757 49.144C194.757 50.008 194.133 50.656 193.293 50.656C192.477 50.656 191.829 50.008 191.829 49.144C191.829 48.256 192.477 47.632 193.293 47.632ZM190.005 61.432V52.336H192.765V64H187.461C187.101 64 186.981 63.496 186.981 62.704C186.981 61.912 187.101 61.432 187.461 61.432H190.005Z" fill="#60BA48"/>
</svg>
