<svg width="339" height="88" viewBox="0 0 339 88" fill="none" xmlns="http://www.w3.org/2000/svg">
<path d="M18.2059 17.432C18.5659 17.432 18.6859 17.912 18.6859 18.704C18.6859 19.496 18.5659 20 18.2059 20H18.1339C16.9579 20 15.9739 19.736 15.1579 19.232C14.3419 22.544 11.8219 24.944 8.00588 24.944C3.27788 24.944 0.541879 21.224 0.541879 16.76C0.541879 15.848 0.661879 14.864 0.877879 13.904L3.58988 14.312C3.42188 15.176 3.30188 16.064 3.30188 16.832C3.30188 20.12 5.14988 22.376 8.00588 22.376C10.8619 22.376 12.7099 20.12 12.7099 16.808V2.216H15.4699V16.712V16.76C15.9259 17.192 16.5739 17.432 17.3899 17.432H18.2059ZM22.8467 17.432C23.2067 17.432 23.3267 17.912 23.3267 18.704C23.3267 19.496 23.2067 20 22.8467 20H18.6947C18.3347 20 18.2147 19.496 18.2147 18.704C18.2147 17.912 18.3347 17.432 18.6947 17.432H22.8467ZM27.4751 17.432C27.8351 17.432 27.9551 17.912 27.9551 18.704C27.9551 19.496 27.8351 20 27.4751 20H23.3231C22.9631 20 22.8431 19.496 22.8431 18.704C22.8431 17.912 22.9631 17.432 23.3231 17.432H27.4751ZM43.8876 17.432C44.2476 17.432 44.3676 17.912 44.3676 18.704C44.3676 19.496 44.2476 20 43.8876 20H27.9516C27.5916 20 27.4716 19.496 27.4716 18.704C27.4716 17.912 27.5916 17.432 27.9516 17.432H37.4796V13.784C37.4796 11.336 35.7756 9.8 33.2076 9.8C31.6716 9.8 30.3996 10.28 29.2236 11.12L28.0236 8.768C29.5596 7.76 31.3356 7.232 33.2076 7.232C37.3116 7.232 40.2396 9.944 40.2396 13.784V17.432H43.8876ZM33.0396 21.92C33.9516 21.92 34.6476 22.616 34.6476 23.576C34.6476 24.536 33.9516 25.256 33.0396 25.256C32.1276 25.256 31.4316 24.536 31.4316 23.576C31.4316 22.616 32.1276 21.92 33.0396 21.92ZM67.4091 17.432C67.7691 17.432 67.8891 17.912 67.8891 18.704C67.8891 19.496 67.7691 20 67.4091 20H66.0891C64.7211 20 63.5931 19.64 62.7291 18.968C61.9611 19.664 60.8571 20 59.3691 20C57.8811 20 56.7291 19.64 55.8891 18.968C55.1211 19.664 54.0171 20 52.5291 20C51.0411 20 49.8891 19.64 49.0491 18.968C48.2571 19.664 47.1291 20 45.5691 20H44.3691C44.0091 20 43.8891 19.496 43.8891 18.704C43.8891 17.912 44.0091 17.432 44.3691 17.432H45.3531C47.1291 17.432 47.6091 16.784 47.6091 15.128V10.712H50.3691V15.152C50.3691 15.872 50.2971 16.496 50.1531 17.048C50.6331 17.312 51.2571 17.432 52.0731 17.432C53.9691 17.432 54.4491 16.832 54.4491 15.128V9.512H57.2091V15.152C57.2091 15.872 57.1371 16.496 56.9931 17.048C57.4731 17.312 58.0971 17.432 58.9131 17.432C60.8091 17.432 61.2891 16.832 61.2891 15.128V8.312H64.0491V15.152C64.0491 15.872 63.9771 16.496 63.8331 17.072C64.2411 17.312 64.7451 17.432 65.3451 17.432H67.4091ZM69.9281 6.656C69.1121 6.656 68.4641 6.008 68.4641 5.144C68.4641 4.256 69.1121 3.632 69.9281 3.632C70.7681 3.632 71.3921 4.256 71.3921 5.144C71.3921 6.008 70.7681 6.656 69.9281 6.656ZM73.7201 3.632C74.5601 3.632 75.1841 4.256 75.1841 5.144C75.1841 6.008 74.5601 6.656 73.7201 6.656C72.9041 6.656 72.2561 6.008 72.2561 5.144C72.2561 4.256 72.9041 3.632 73.7201 3.632ZM70.4321 17.432V8.336H73.1921V20H67.8881C67.5281 20 67.4081 19.496 67.4081 18.704C67.4081 17.912 67.5281 17.432 67.8881 17.432H70.4321ZM105.533 17.432C105.893 17.432 106.013 17.912 106.013 18.704C106.013 19.496 105.893 20 105.533 20H104.213C102.845 20 101.717 19.64 100.853 18.968C100.085 19.664 98.9332 20 97.3732 20H88.7812C85.4212 20 83.5012 17.96 83.5012 14.696C83.5012 12.464 84.4132 10.904 85.9492 9.608L88.1812 11.168C86.8372 12.32 86.2612 13.376 86.2612 14.672C86.2612 16.328 87.2212 17.432 88.9972 17.432H97.1572C98.9332 17.432 99.4132 16.76 99.4132 15.128V8.336H102.173V15.152C102.173 15.872 102.101 16.52 101.957 17.072C102.365 17.312 102.869 17.432 103.469 17.432H105.533ZM92.9572 21.92C93.8692 21.92 94.5652 22.616 94.5652 23.576C94.5652 24.536 93.8692 25.256 92.9572 25.256C92.0452 25.256 91.3492 24.536 91.3492 23.576C91.3492 22.616 92.0452 21.92 92.9572 21.92ZM110.16 17.432C110.52 17.432 110.64 17.912 110.64 18.704C110.64 19.496 110.52 20 110.16 20H106.008C105.648 20 105.528 19.496 105.528 18.704C105.528 17.912 105.648 17.432 106.008 17.432H110.16ZM114.788 17.432C115.148 17.432 115.268 17.912 115.268 18.704C115.268 19.496 115.148 20 114.788 20H110.636C110.276 20 110.156 19.496 110.156 18.704C110.156 17.912 110.276 17.432 110.636 17.432H114.788ZM117.809 8.336H120.569V20H115.265C114.905 20 114.785 19.496 114.785 18.704C114.785 17.912 114.905 17.432 115.265 17.432H117.809V8.336ZM118.961 21.92C119.873 21.92 120.569 22.616 120.569 23.576C120.569 24.536 119.873 25.256 118.961 25.256C118.049 25.256 117.353 24.536 117.353 23.576C117.353 22.616 118.049 21.92 118.961 21.92ZM130.505 17.432C130.865 17.432 130.985 17.912 130.985 18.704C130.985 19.496 130.865 20 130.505 20H124.889V2.216H127.649V17.432H130.505ZM135.142 17.432C135.502 17.432 135.622 17.912 135.622 18.704C135.622 19.496 135.502 20 135.142 20H130.99C130.63 20 130.51 19.496 130.51 18.704C130.51 17.912 130.63 17.432 130.99 17.432H135.142ZM147.907 17.432H148.915L148.531 20H135.619C135.259 20 135.139 19.496 135.139 18.704C135.139 17.912 135.259 17.432 135.619 17.432H145.147V13.784C145.147 11.336 143.443 9.8 140.875 9.8C139.339 9.8 138.067 10.28 136.891 11.12L135.691 8.768C137.227 7.76 139.003 7.232 140.875 7.232C144.979 7.232 147.907 9.944 147.907 13.784V17.432ZM183.548 17.432C183.908 17.432 184.028 17.912 184.028 18.704C184.028 19.496 183.908 20 183.548 20H178.604V20.288C178.604 23.6 175.556 25.52 168.596 25.52C162.572 25.52 158.492 23.984 158.492 19.064C158.492 18.128 158.636 16.496 158.972 15.128L161.66 15.752C161.42 16.664 161.252 18.104 161.252 19.016C161.252 21.872 163.076 22.952 168.62 22.952C173.636 22.952 175.46 22.064 175.46 20.504C175.46 20.312 175.436 20.144 175.388 20H175.076C173.204 20 171.764 19.496 170.828 18.536L172.748 16.712C173.252 17.216 173.852 17.432 175.076 17.432H178.1V2.216H180.86V17.432H183.548ZM166.892 27.032C167.732 27.032 168.356 27.656 168.356 28.544C168.356 29.408 167.732 30.056 166.892 30.056C166.076 30.056 165.428 29.408 165.428 28.544C165.428 27.656 166.076 27.032 166.892 27.032ZM170.684 27.032C171.524 27.032 172.148 27.656 172.148 28.544C172.148 29.408 171.524 30.056 170.684 30.056C169.868 30.056 169.22 29.408 169.22 28.544C169.22 27.656 169.868 27.032 170.684 27.032ZM185.876 2.216H188.636V20H184.028C183.668 20 183.548 19.496 183.548 18.704C183.548 17.912 183.668 17.432 184.028 17.432H185.876V2.216ZM193.207 20V2.216H195.967V20H193.207ZM210.809 5.768C209.993 5.768 209.345 5.12 209.345 4.256C209.345 3.368 209.993 2.744 210.809 2.744C211.649 2.744 212.273 3.368 212.273 4.256C212.273 5.12 211.649 5.768 210.809 5.768ZM214.601 5.768C213.785 5.768 213.137 5.12 213.137 4.256C213.137 3.368 213.785 2.744 214.601 2.744C215.441 2.744 216.065 3.368 216.065 4.256C216.065 5.12 215.441 5.768 214.601 5.768ZM212.705 20C209.153 20 206.513 17.432 206.513 14.144C206.513 10.64 209.585 7.496 212.705 7.496C215.825 7.496 218.897 10.64 218.897 14.144C218.897 17.432 216.257 20 212.705 20ZM212.705 17.432C214.697 17.432 216.137 16.064 216.137 14.144C216.137 12.128 214.313 10.064 212.705 10.064C211.097 10.064 209.273 12.128 209.273 14.144C209.273 16.064 210.713 17.432 212.705 17.432ZM225.022 5.96C230.686 7.28 234.238 12.08 234.286 18.512C232.054 19.472 229.318 20 226.342 20C224.71 20 223.174 19.832 221.782 19.544V16.904C223.27 17.264 224.71 17.432 226.366 17.432C228.19 17.432 229.846 17.216 231.406 16.784C230.83 12.632 228.43 9.392 224.398 8.456L225.022 5.96ZM243.75 17.432C244.11 17.432 244.23 17.912 244.23 18.704C244.23 19.496 244.11 20 243.75 20H238.134V2.216H240.894V17.432H243.75ZM248.388 17.432C248.748 17.432 248.868 17.912 248.868 18.704C248.868 19.496 248.748 20 248.388 20H244.236C243.876 20 243.756 19.496 243.756 18.704C243.756 17.912 243.876 17.432 244.236 17.432H248.388ZM253.016 17.432C253.376 17.432 253.496 17.912 253.496 18.704C253.496 19.496 253.376 20 253.016 20H248.864C248.504 20 248.384 19.496 248.384 18.704C248.384 17.912 248.504 17.432 248.864 17.432H253.016ZM257.644 17.432C258.004 17.432 258.124 17.912 258.124 18.704C258.124 19.496 258.004 20 257.644 20H253.492C253.132 20 253.012 19.496 253.012 18.704C253.012 17.912 253.132 17.432 253.492 17.432H257.644ZM264.049 14.552C264.049 17.024 264.793 18.92 266.161 20.096L264.625 22.328C263.185 20.72 262.561 20 259.225 20H258.121C257.761 20 257.641 19.496 257.641 18.704C257.641 17.912 257.761 17.432 258.121 17.432H259.465C260.233 17.432 260.953 17.504 261.625 17.624C261.409 16.76 261.289 15.8 261.289 14.816V2.216H264.049V14.552ZM270.722 20V2.216H273.482V20H270.722ZM298.885 17.432C299.245 17.432 299.365 17.912 299.365 18.704C299.365 19.496 299.245 20 298.885 20H296.101V20.048C296.101 23.432 294.157 25.4 290.965 25.448L290.533 22.856C292.501 22.976 293.341 22.16 293.341 20.048V20H290.677C287.029 20 284.029 17.288 284.029 13.808C284.029 10.352 287.029 7.616 290.677 7.616C292.357 7.616 294.397 8.264 295.957 9.272L296.101 9.32V17.432H298.885ZM290.749 17.432H293.341V10.808C292.549 10.448 291.685 10.184 290.749 10.184C288.421 10.184 286.789 11.84 286.789 13.808C286.789 15.8 288.421 17.432 290.749 17.432ZM303.521 17.432C303.881 17.432 304.001 17.912 304.001 18.704C304.001 19.496 303.881 20 303.521 20H299.369C299.009 20 298.889 19.496 298.889 18.704C298.889 17.912 299.009 17.432 299.369 17.432H303.521ZM308.149 17.432C308.509 17.432 308.629 17.912 308.629 18.704C308.629 19.496 308.509 20 308.149 20H303.997C303.637 20 303.517 19.496 303.517 18.704C303.517 17.912 303.637 17.432 303.997 17.432H308.149ZM312.778 17.432C313.138 17.432 313.258 17.912 313.258 18.704C313.258 19.496 313.138 20 312.778 20H308.626C308.266 20 308.146 19.496 308.146 18.704C308.146 17.912 308.266 17.432 308.626 17.432H312.778ZM317.406 17.432C317.766 17.432 317.886 17.912 317.886 18.704C317.886 19.496 317.766 20 317.406 20H313.254C312.894 20 312.774 19.496 312.774 18.704C312.774 17.912 312.894 17.432 313.254 17.432H317.406ZM329.283 3.44C328.491 3.44 327.939 2.888 327.939 2.072C327.939 1.256 328.491 0.655999 329.283 0.655999C330.075 0.655999 330.627 1.256 330.627 2.072C330.627 2.888 330.075 3.44 329.283 3.44ZM327.387 6.752C326.571 6.752 325.923 6.128 325.923 5.24C325.923 4.376 326.571 3.728 327.387 3.728C328.227 3.728 328.851 4.376 328.851 5.24C328.851 6.128 328.227 6.752 327.387 6.752ZM329.715 5.24C329.715 4.376 330.363 3.728 331.179 3.728C332.019 3.728 332.643 4.376 332.643 5.24C332.643 6.128 332.019 6.752 331.179 6.752C330.363 6.752 329.715 6.128 329.715 5.24ZM334.803 8.312H337.563V15.152C337.563 18.368 336.123 20 332.883 20C331.395 20 330.243 19.64 329.403 18.968C328.635 19.664 327.531 20 326.043 20C324.555 20 323.403 19.64 322.563 18.968C321.771 19.664 320.643 20 319.083 20H317.883C317.523 20 317.403 19.496 317.403 18.704C317.403 17.912 317.523 17.432 317.883 17.432H318.867C320.643 17.432 321.123 16.784 321.123 15.128V10.712H323.883V15.152C323.883 15.872 323.811 16.496 323.667 17.048C324.147 17.312 324.771 17.432 325.587 17.432C327.483 17.432 327.963 16.832 327.963 15.128V9.512H330.723V15.152C330.723 15.872 330.651 16.496 330.507 17.048C330.987 17.312 331.611 17.432 332.427 17.432C334.323 17.432 334.803 16.832 334.803 15.128V8.312ZM119.285 52.096L117.125 52.12C117.053 50.488 116.117 49.672 114.557 49.672C113.069 49.672 112.109 50.32 112.109 51.736C112.109 54.64 115.853 54.64 115.853 58.528H113.741C113.741 55.288 109.517 55.12 109.517 51.328C109.517 48.712 111.461 47.32 114.317 47.32C117.293 47.32 119.213 49.048 119.285 52.096ZM114.821 61.048C115.685 61.048 116.333 61.696 116.333 62.608C116.333 63.544 115.685 64.216 114.821 64.216C113.957 64.216 113.309 63.544 113.309 62.608C113.309 61.696 113.957 61.048 114.821 61.048ZM220.922 53.056C220.01 53.056 219.314 52.336 219.314 51.376C219.314 50.416 220.01 49.72 220.922 49.72C221.834 49.72 222.53 50.416 222.53 51.376C222.53 52.336 221.834 53.056 220.922 53.056ZM221.018 68.944C216.29 68.944 213.554 65.296 213.554 60.832C213.554 59.512 213.818 58.048 214.202 56.728L216.698 57.976C216.458 59.008 216.314 60.04 216.314 60.904C216.314 64.12 218.162 66.376 221.018 66.376C223.874 66.376 225.722 64.144 225.722 60.904C225.722 59.416 225.338 57.424 224.738 56.008L227.186 54.712C227.978 56.44 228.482 58.816 228.482 60.784C228.482 65.296 225.746 68.944 221.018 68.944ZM238.288 61.432C238.648 61.432 238.768 61.912 238.768 62.704C238.768 63.496 238.648 64 238.288 64H232.672V46.216H235.432V61.432H238.288ZM250.173 47.44C249.381 47.44 248.829 46.888 248.829 46.072C248.829 45.256 249.381 44.656 250.173 44.656C250.965 44.656 251.517 45.256 251.517 46.072C251.517 46.888 250.965 47.44 250.173 47.44ZM248.277 50.752C247.461 50.752 246.813 50.128 246.813 49.24C246.813 48.376 247.461 47.728 248.277 47.728C249.117 47.728 249.741 48.376 249.741 49.24C249.741 50.128 249.117 50.752 248.277 50.752ZM250.605 49.24C250.605 48.376 251.253 47.728 252.069 47.728C252.909 47.728 253.533 48.376 253.533 49.24C253.533 50.128 252.909 50.752 252.069 50.752C251.253 50.752 250.605 50.128 250.605 49.24ZM261.813 61.432C262.173 61.432 262.293 61.912 262.293 62.704C262.293 63.496 262.173 64 261.813 64H260.493C259.125 64 257.997 63.64 257.133 62.968C256.365 63.664 255.261 64 253.773 64C252.285 64 251.133 63.64 250.293 62.968C249.525 63.664 248.421 64 246.933 64C245.445 64 244.293 63.64 243.453 62.968C242.661 63.664 241.533 64 239.973 64H238.773C238.413 64 238.293 63.496 238.293 62.704C238.293 61.912 238.413 61.432 238.773 61.432H239.757C241.533 61.432 242.013 60.784 242.013 59.128V54.712H244.773V59.152C244.773 59.872 244.701 60.496 244.557 61.048C245.037 61.312 245.661 61.432 246.477 61.432C248.373 61.432 248.853 60.832 248.853 59.128V53.512H251.613V59.152C251.613 59.872 251.541 60.496 251.397 61.048C251.877 61.312 252.501 61.432 253.317 61.432C255.213 61.432 255.693 60.832 255.693 59.128V52.312H258.453V59.152C258.453 59.872 258.381 60.496 258.237 61.072C258.645 61.312 259.149 61.432 259.749 61.432H261.813ZM269.78 51.232C273.884 51.232 277.436 56.176 277.172 62.464C274.844 63.52 272.06 64 270.164 64C268.892 64 267.38 63.784 265.676 63.016C264.908 63.64 263.876 64 262.628 64H262.292C261.932 64 261.812 63.496 261.812 62.704C261.812 61.912 261.932 61.432 262.292 61.432H262.628C263.636 61.432 264.236 60.976 264.404 59.872C264.62 58.504 264.788 51.232 269.78 51.232ZM267.068 60.736C268.1 61.216 269.06 61.432 270.188 61.432C271.46 61.432 272.972 61.168 274.388 60.736C274.028 56.968 271.892 53.8 269.9 53.8C267.404 53.8 267.428 58.744 267.14 60.376L267.068 60.736ZM293.153 61.432C293.513 61.432 293.633 61.912 293.633 62.704C293.633 63.496 293.513 64 293.153 64H287.537V46.216H290.297V61.432H293.153ZM297.79 61.432C298.15 61.432 298.27 61.912 298.27 62.704C298.27 63.496 298.15 64 297.79 64H293.638C293.278 64 293.158 63.496 293.158 62.704C293.158 61.912 293.278 61.432 293.638 61.432H297.79ZM314.275 61.432C314.635 61.432 314.755 61.912 314.755 62.704C314.755 63.496 314.635 64 314.275 64H313.891C311.419 64 311.755 66.304 311.707 69.736L309.187 71.272C306.115 71.272 302.779 68.584 301.483 64H298.267C297.907 64 297.787 63.496 297.787 62.704C297.787 61.912 297.907 61.432 298.267 61.432H300.979C300.931 60.904 300.907 60.352 300.907 59.776C300.907 54.256 303.499 51.4 306.043 51.4C308.563 51.4 311.179 54.28 311.179 59.776C311.179 60.616 311.107 61.384 311.011 62.152C311.707 61.696 312.643 61.432 313.891 61.432H314.275ZM303.667 59.8C303.667 60.352 303.715 60.904 303.763 61.432H308.323C308.395 60.928 308.419 60.4 308.419 59.872C308.419 56.44 307.099 53.968 306.043 53.968C304.963 53.968 303.667 56.464 303.667 59.8ZM304.387 64C305.251 66.424 306.787 68.2 308.467 68.608L308.947 68.32C308.947 66.928 308.971 65.32 309.499 64H304.387ZM324.138 61.432C324.498 61.432 324.618 61.912 324.618 62.704C324.618 63.496 324.498 64 324.138 64H322.818C321.45 64 320.322 63.64 319.458 62.968C318.69 63.664 317.538 64 315.978 64H314.754C314.394 64 314.274 63.496 314.274 62.704C314.274 61.912 314.394 61.432 314.754 61.432H315.762C317.538 61.432 318.018 60.76 318.018 59.128V52.336H320.778V59.152C320.778 59.872 320.706 60.52 320.562 61.072C320.97 61.312 321.474 61.432 322.074 61.432H324.138ZM317.514 65.848C318.354 65.848 318.978 66.472 318.978 67.36C318.978 68.224 318.354 68.872 317.514 68.872C316.698 68.872 316.05 68.224 316.05 67.36C316.05 66.472 316.698 65.848 317.514 65.848ZM321.306 65.848C322.146 65.848 322.77 66.472 322.77 67.36C322.77 68.224 322.146 68.872 321.306 68.872C320.49 68.872 319.842 68.224 319.842 67.36C319.842 66.472 320.49 65.848 321.306 65.848ZM333.129 49.576C332.217 49.576 331.521 48.856 331.521 47.896C331.521 46.936 332.217 46.24 333.129 46.24C334.041 46.24 334.737 46.936 334.737 47.896C334.737 48.856 334.041 49.576 333.129 49.576ZM333.105 51.616C334.905 51.616 336.705 52.264 338.049 52.936V64H324.609C324.249 64 324.129 63.496 324.129 62.704C324.129 61.912 324.249 61.432 324.609 61.432H327.513C326.841 60.472 326.433 59.296 326.433 57.976C326.433 54.304 329.409 51.616 333.105 51.616ZM329.193 57.952C329.193 59.704 330.273 61.024 332.001 61.432H335.289V54.568C334.449 54.304 333.753 54.184 333.129 54.184C330.849 54.184 329.193 55.792 329.193 57.952Z" fill="#222222"/>
<path d="M128.101 61.432C128.461 61.432 128.581 61.912 128.581 62.704C128.581 63.496 128.461 64 128.101 64H122.485V46.216H125.245V61.432H128.101ZM132.739 61.432C133.099 61.432 133.219 61.912 133.219 62.704C133.219 63.496 133.099 64 132.739 64H128.587C128.227 64 128.107 63.496 128.107 62.704C128.107 61.912 128.227 61.432 128.587 61.432H132.739ZM137.367 61.432C137.727 61.432 137.847 61.912 137.847 62.704C137.847 63.496 137.727 64 137.367 64H133.215C132.855 64 132.735 63.496 132.735 62.704C132.735 61.912 132.855 61.432 133.215 61.432H137.367ZM149.123 52.432C152.819 54.136 154.691 56.224 154.499 60.616L154.355 64H137.843C137.483 64 137.363 63.496 137.363 62.704C137.363 61.912 137.483 61.432 137.843 61.432H140.363C139.979 60.184 139.763 58.84 139.763 57.688C139.763 55.528 140.507 53.776 141.731 52.672L140.003 52.216L140.699 49.744C145.043 50.872 147.059 51.448 149.123 52.432ZM142.523 57.688C142.523 58.912 142.811 60.328 143.219 61.432H147.275V57.256C147.275 55.408 146.483 53.968 145.043 53.968C143.555 53.968 142.523 55.432 142.523 57.688ZM151.739 60.496C151.835 58.288 151.379 56.944 149.915 55.864C149.987 56.296 150.035 56.776 150.035 57.256V61.432H151.691L151.739 60.496ZM163.208 61.432C163.568 61.432 163.688 61.912 163.688 62.704C163.688 63.496 163.568 64 163.208 64H160.568V64.048C160.568 67.432 158.624 69.4 155.432 69.448L155 66.856C156.968 66.976 157.808 66.16 157.808 64.048V52.336H160.568V61.432H163.208ZM167.846 61.432C168.206 61.432 168.326 61.912 168.326 62.704C168.326 63.496 168.206 64 167.846 64H163.694C163.334 64 163.214 63.496 163.214 62.704C163.214 61.912 163.334 61.432 163.694 61.432H167.846ZM181.21 61.432C181.57 61.432 181.69 61.912 181.69 62.704C181.69 63.496 181.57 64 181.21 64H168.322C167.962 64 167.842 63.496 167.842 62.704C167.842 61.912 167.962 61.432 168.322 61.432H175.474V61.24C175.474 57.568 173.842 55.432 170.914 55.432L169.186 53.608L175.426 47.296L177.154 49.096L173.218 53.104C176.266 54.04 178.234 57.112 178.234 61.432H181.21ZM197.701 61.432C198.061 61.432 198.181 61.912 198.181 62.704C198.181 63.496 198.061 64 197.701 64H197.317C194.845 64 195.181 66.304 195.133 69.736L192.613 71.272C189.541 71.272 186.205 68.584 184.909 64H181.693C181.333 64 181.213 63.496 181.213 62.704C181.213 61.912 181.333 61.432 181.693 61.432H184.405C184.357 60.904 184.333 60.352 184.333 59.776C184.333 54.256 186.925 51.4 189.469 51.4C191.989 51.4 194.605 54.28 194.605 59.776C194.605 60.616 194.533 61.384 194.437 62.152C195.133 61.696 196.069 61.432 197.317 61.432H197.701ZM187.093 59.8C187.093 60.352 187.141 60.904 187.189 61.432H191.749C191.821 60.928 191.845 60.4 191.845 59.872C191.845 56.44 190.525 53.968 189.469 53.968C188.389 53.968 187.093 56.464 187.093 59.8ZM187.813 64C188.677 66.424 190.213 68.2 191.893 68.608L192.373 68.32C192.373 66.928 192.397 65.32 192.925 64H187.813ZM200.221 50.656C199.405 50.656 198.757 50.008 198.757 49.144C198.757 48.256 199.405 47.632 200.221 47.632C201.061 47.632 201.685 48.256 201.685 49.144C201.685 50.008 201.061 50.656 200.221 50.656ZM204.013 47.632C204.853 47.632 205.477 48.256 205.477 49.144C205.477 50.008 204.853 50.656 204.013 50.656C203.197 50.656 202.549 50.008 202.549 49.144C202.549 48.256 203.197 47.632 204.013 47.632ZM200.725 61.432V52.336H203.485V64H198.181C197.821 64 197.701 63.496 197.701 62.704C197.701 61.912 197.821 61.432 198.181 61.432H200.725Z" fill="#60BA48"/>
<path d="M123 78.0627C147.319 78.0627 209.394 76.5643 202.464 77.126C178.44 77.126 160.515 81.4087 153.617 87" stroke="#60BA48" stroke-width="2" stroke-linecap="round"/>
</svg>
