<svg width="48" height="48" viewBox="0 0 48 48" fill="none" xmlns="http://www.w3.org/2000/svg">
<rect width="48" height="48" rx="16" fill="#FEFCE8"/>
<path d="M27.75 33C27.75 33.1989 27.671 33.3897 27.5303 33.5303C27.3897 33.671 27.1989 33.75 27 33.75H21C20.8011 33.75 20.6103 33.671 20.4697 33.5303C20.329 33.3897 20.25 33.1989 20.25 33C20.25 32.8011 20.329 32.6103 20.4697 32.4697C20.6103 32.329 20.8011 32.25 21 32.25H27C27.1989 32.25 27.3897 32.329 27.5303 32.4697C27.671 32.6103 27.75 32.8011 27.75 33ZM32.7947 28.4944C32.2735 27.5981 31.5 25.0622 31.5 21.75C31.5 19.7609 30.7098 17.8532 29.3033 16.4467C27.8968 15.0402 25.9891 14.25 24 14.25C22.0109 14.25 20.1032 15.0402 18.6967 16.4467C17.2902 17.8532 16.5 19.7609 16.5 21.75C16.5 25.0631 15.7256 27.5981 15.2053 28.4944C15.0725 28.7222 15.002 28.9811 15.0011 29.2449C15.0002 29.5086 15.0689 29.768 15.2002 29.9967C15.3315 30.2255 15.5208 30.4156 15.749 30.5478C15.9772 30.6801 16.2362 30.7498 16.5 30.75H31.5C31.7637 30.7496 32.0226 30.6798 32.2507 30.5475C32.4788 30.4151 32.668 30.225 32.7992 29.9963C32.9303 29.7676 32.9989 29.5083 32.998 29.2446C32.997 28.9809 32.9266 28.7222 32.7938 28.4944H32.7947Z" fill="#F0B100"/>
</svg>
