<svg width="306" height="306" viewBox="0 0 306 306" fill="none" xmlns="http://www.w3.org/2000/svg">
<circle cx="151.634" cy="162.562" r="95.8982" fill="#1E1E1E"/>
<path d="M174.622 150.897L148.775 133.807C148.126 133.377 147.372 133.131 146.593 133.093C145.814 133.056 145.039 133.229 144.351 133.594C143.664 133.959 143.089 134.503 142.688 135.167C142.288 135.831 142.076 136.59 142.077 137.364V171.545C142.076 172.319 142.288 173.079 142.688 173.742C143.089 174.406 143.664 174.95 144.351 175.315C145.039 175.68 145.814 175.853 146.593 175.816C147.372 175.779 148.126 175.532 148.775 175.103L174.622 158.012C175.212 157.622 175.697 157.093 176.032 156.472C176.367 155.852 176.543 155.159 176.543 154.455C176.543 153.751 176.367 153.057 176.032 152.437C175.697 151.816 175.212 151.288 174.622 150.897ZM150.692 163.561V145.375L164.466 154.455L150.692 163.561ZM202.385 116H107.615C105.33 116 103.139 116.9 101.523 118.503C99.9077 120.105 99 122.279 99 124.545V184.364C99 186.63 99.9077 188.804 101.523 190.406C103.139 192.009 105.33 192.909 107.615 192.909H202.385C204.67 192.909 206.861 192.009 208.477 190.406C210.092 188.804 211 186.63 211 184.364V124.545C211 122.279 210.092 120.105 208.477 118.503C206.861 116.9 204.67 116 202.385 116ZM202.385 184.364H107.615V124.545H202.385V184.364ZM211 205.727C211 206.86 210.546 207.947 209.738 208.749C208.93 209.55 207.835 210 206.692 210H103.308C102.165 210 101.07 209.55 100.262 208.749C99.4538 207.947 99 206.86 99 205.727C99 204.594 99.4538 203.507 100.262 202.706C101.07 201.905 102.165 201.455 103.308 201.455H206.692C207.835 201.455 208.93 201.905 209.738 202.706C210.546 203.507 211 204.594 211 205.727Z" fill="#B1BDD0"/>
<circle cx="61.7466" cy="97.8105" r="6.01071" fill="#1E1E1E"/>
<circle cx="219.938" cy="58.7408" r="11.2018" fill="#1E1E1E"/>
<circle cx="63.6588" cy="224.309" r="10.6554" fill="#1E1E1E"/>
<circle cx="254.362" cy="213.926" r="10.6554" fill="#1E1E1E"/>
<circle cx="233.598" cy="225.948" r="5.19107" fill="#1E1E1E"/>
<path d="M259.367 181.048L261.04 188.953L268.833 190.651L261.04 192.348L259.367 200.254L257.694 192.348L249.901 190.651L257.694 188.953L259.367 181.048Z" fill="#B1BDD0"/>
<path d="M249.36 100.336C249.482 99.7584 250.307 99.7584 250.429 100.336L251.495 105.37C251.539 105.581 251.703 105.745 251.913 105.791L256.909 106.88C257.483 107.005 257.483 107.822 256.909 107.947L251.913 109.036C251.703 109.082 251.539 109.246 251.495 109.457L250.429 114.491C250.307 115.069 249.482 115.069 249.36 114.491L248.294 109.457C248.25 109.246 248.086 109.082 247.876 109.036L242.88 107.947C242.306 107.822 242.306 107.005 242.88 106.88L247.876 105.791C248.086 105.745 248.25 105.581 248.294 105.37L249.36 100.336Z" fill="#B1BDD0"/>
<path d="M50.9397 166.454C51.062 165.876 51.8866 165.876 52.0089 166.454L53.8355 175.083C53.88 175.294 54.0437 175.458 54.2537 175.504L62.7942 177.365C63.3676 177.489 63.3676 178.307 62.7941 178.432L54.2537 180.293C54.0437 180.339 53.88 180.503 53.8355 180.714L52.0089 189.343C51.8866 189.921 51.062 189.921 50.9397 189.343L49.1131 180.714C49.0686 180.503 48.9049 180.339 48.6948 180.293L40.1544 178.432C39.5809 178.307 39.5809 177.489 40.1544 177.365L48.6948 175.504C48.9049 175.458 49.0686 175.294 49.1131 175.083L50.9397 166.454Z" fill="#B1BDD0"/>
<path d="M84.9834 74.6073C84.6666 74.5399 84.6666 74.0878 84.9834 74.0204L89.7732 73.0019C89.8887 72.9773 89.979 72.8873 90.004 72.772L91.0353 68.0159C91.1037 67.7007 91.5533 67.7007 91.6217 68.0159L92.653 72.772C92.678 72.8873 92.7684 72.9773 92.8838 73.0019L97.6736 74.0204C97.9904 74.0878 97.9904 74.5399 97.6736 74.6073L92.8838 75.6259C92.7684 75.6504 92.678 75.7404 92.653 75.8557L91.6217 80.6118C91.5533 80.927 91.1037 80.927 91.0353 80.6118L90.004 75.8557C89.979 75.7404 89.8887 75.6504 89.7732 75.6259L84.9834 74.6073Z" fill="#B1BDD0"/>
</svg>
