<svg width="306" height="306" viewBox="0 0 306 306" fill="none" xmlns="http://www.w3.org/2000/svg">
<circle cx="151.634" cy="168.57" r="95.8982" fill="#F7F7F7"/>
<circle cx="61.7466" cy="103.818" r="6.01071" fill="#F7F7F7"/>
<circle cx="217.205" cy="80.0477" r="11.2018" fill="#F7F7F7"/>
<circle cx="63.6591" cy="230.316" r="10.6554" fill="#F7F7F7"/>
<circle cx="254.363" cy="219.933" r="10.6554" fill="#F7F7F7"/>
<circle cx="233.598" cy="231.955" r="5.19107" fill="#F7F7F7"/>
<path d="M167.639 87.7184C167.322 87.651 167.322 87.1989 167.639 87.1315L172.429 86.1129C172.544 86.0884 172.635 85.9984 172.66 85.8831L173.691 81.127C173.759 80.8118 174.209 80.8118 174.277 81.127L175.309 85.8831C175.334 85.9984 175.424 86.0884 175.539 86.1129L180.329 87.1315C180.646 87.1989 180.646 87.651 180.329 87.7184L175.539 88.737C175.424 88.7615 175.334 88.8515 175.309 88.9668L174.277 93.7229C174.209 94.0381 173.759 94.0381 173.691 93.7229L172.66 88.9668C172.635 88.8515 172.544 88.7615 172.429 88.737L167.639 87.7184Z" fill="#C4CBF5"/>
<path d="M50.9399 172.461C51.0622 171.883 51.8868 171.883 52.0091 172.461L53.8357 181.091C53.8802 181.301 54.0439 181.466 54.2539 181.511L62.7943 183.372C63.3678 183.497 63.3678 184.315 62.7943 184.44L54.2539 186.3C54.0439 186.346 53.8802 186.511 53.8357 186.721L52.0091 195.35C51.8868 195.928 51.0622 195.928 50.9399 195.35L49.1133 186.721C49.0688 186.511 48.9051 186.346 48.695 186.3L40.1546 184.44C39.5811 184.315 39.5811 183.497 40.1546 183.372L48.695 181.511C48.9051 181.466 49.0688 181.301 49.1133 181.091L50.9399 172.461Z" fill="#B1BDD0"/>
<path d="M92.0497 58.7748C92.1177 58.4539 92.5758 58.4539 92.6437 58.7748L93.6584 63.5688C93.6832 63.6856 93.7741 63.7771 93.8908 63.8025L98.6352 64.8361C98.9538 64.9055 98.9538 65.3599 98.6352 65.4293L93.8908 66.4629C93.7741 66.4883 93.6832 66.5798 93.6584 66.6966L92.6437 71.4905C92.5758 71.8115 92.1177 71.8115 92.0497 71.4905L91.035 66.6966C91.0103 66.5798 90.9193 66.4883 90.8026 66.4629L86.0582 65.4293C85.7396 65.3599 85.7396 64.9055 86.0582 64.8361L90.8026 63.8025C90.9193 63.7771 91.0103 63.6856 91.035 63.5688L92.0497 58.7748Z" fill="#B1BDD0"/>
<path d="M237.339 106.343C237.461 105.765 238.285 105.765 238.408 106.343L239.473 111.377C239.518 111.588 239.682 111.752 239.892 111.798L244.888 112.886C245.462 113.011 245.462 113.829 244.888 113.954L239.892 115.043C239.682 115.089 239.518 115.253 239.473 115.464L238.408 120.498C238.285 121.075 237.461 121.075 237.339 120.498L236.273 115.464C236.228 115.253 236.065 115.089 235.855 115.043L230.858 113.954C230.285 113.829 230.285 113.011 230.858 112.886L235.855 111.798C236.065 111.752 236.228 111.588 236.273 111.377L237.339 106.343Z" fill="#B1BDD0"/>
<path d="M259.367 187.056L261.04 194.961L268.833 196.659L261.04 198.356L259.367 206.262L257.694 198.356L249.901 196.659L257.694 194.961L259.367 187.056Z" fill="#B1BDD0"/>
<path d="M125.739 66.3564C132.687 64.4733 139.681 68.3087 141.438 74.7914C143.195 81.2741 139.095 88.1163 132.147 89.9994C125.2 91.8825 118.206 88.0471 116.449 81.5644C114.692 75.0816 118.791 68.2395 125.739 66.3564Z" fill="#B1BDD0" stroke="#F7F7F7" stroke-width="2"/>
<path d="M86.0461 221.13L86.5233 220.535C90.4212 215.677 91.6934 209.247 90.2672 203.184C84.9373 180.527 74.7421 123.655 99.047 97.6215C108.765 87.2119 116.449 79.9624 128.821 76.5675C148.402 71.1949 162.373 72.3233 178.187 84.1616C202.977 102.72 210.785 142.972 228.261 170.873C230.632 174.659 234.557 177.134 238.927 178.064C240.74 178.449 242.504 179.082 243.993 180.186C245.308 181.16 246.835 182.492 247.589 183.875C247.846 184.347 248.061 184.912 248.239 185.499C249.017 188.066 248.759 190.873 247.589 193.287C246.192 196.167 243.512 198.159 240.68 199.651L238.498 200.8L234.723 202.789C232.918 203.74 231.125 204.673 229.298 205.581C221.07 209.669 195.778 221.886 176.017 227.712C149.919 235.405 118.95 243.499 90.93 241.113C88.7289 240.926 86.6948 239.899 85.1642 238.306C83.4586 236.532 82.5061 234.166 82.5061 231.704L82.5061 230.841C82.5061 230.213 82.5568 229.586 82.6578 228.965L82.7153 228.613C83.1615 225.873 84.3089 223.295 86.0461 221.13Z" fill="#F7F7F7" stroke="#B1BDD0" stroke-width="2"/>
<ellipse cx="166.076" cy="211.835" rx="74.6222" ry="13.0487" transform="rotate(-15.4595 166.076 211.835)" fill="#B1BDD0"/>
<path d="M149.5 206L177.774 196.889C179.96 204.366 181.346 216 171.661 219.717C161.975 223.434 152.604 215.827 149.5 206Z" fill="#F7F7F7" stroke="#B1BDD0" stroke-width="2"/>
</svg>
