<svg width="306" height="306" viewBox="0 0 306 306" fill="none" xmlns="http://www.w3.org/2000/svg">
<circle cx="151.634" cy="168.57" r="95.8982" fill="#1E1E1E"/>
<circle cx="61.7466" cy="103.818" r="6.01071" fill="#1E1E1E"/>
<circle cx="217.205" cy="80.0477" r="11.2018" fill="#1E1E1E"/>
<circle cx="63.6588" cy="230.316" r="10.6554" fill="#1E1E1E"/>
<circle cx="254.362" cy="219.933" r="10.6554" fill="#1E1E1E"/>
<circle cx="233.598" cy="231.955" r="5.19107" fill="#1E1E1E"/>
<path d="M167.639 87.7184C167.322 87.651 167.322 87.1989 167.639 87.1315L172.429 86.1129C172.544 86.0884 172.634 85.9984 172.659 85.8831L173.691 81.127C173.759 80.8118 174.209 80.8118 174.277 81.127L175.308 85.8831C175.333 85.9984 175.424 86.0884 175.539 86.1129L180.329 87.1315C180.646 87.1989 180.646 87.651 180.329 87.7184L175.539 88.737C175.424 88.7615 175.333 88.8515 175.308 88.9668L174.277 93.7229C174.209 94.0381 173.759 94.0381 173.691 93.7229L172.659 88.9668C172.634 88.8515 172.544 88.7615 172.429 88.737L167.639 87.7184Z" fill="#C4CBF5"/>
<path d="M50.9397 172.461C51.062 171.883 51.8866 171.883 52.0089 172.461L53.8355 181.091C53.88 181.301 54.0437 181.466 54.2537 181.511L62.7942 183.372C63.3676 183.497 63.3676 184.315 62.7942 184.44L54.2537 186.3C54.0437 186.346 53.88 186.511 53.8355 186.721L52.0089 195.35C51.8866 195.928 51.062 195.928 50.9397 195.35L49.1131 186.721C49.0686 186.511 48.9049 186.346 48.6948 186.3L40.1544 184.44C39.5809 184.315 39.5809 183.497 40.1544 183.372L48.6948 181.511C48.9049 181.466 49.0686 181.301 49.1131 181.091L50.9397 172.461Z" fill="#B1BDD0"/>
<path d="M92.0493 58.7748C92.1172 58.4539 92.5753 58.4539 92.6433 58.7748L93.658 63.5688C93.6827 63.6856 93.7737 63.7771 93.8904 63.8025L98.6348 64.8361C98.9534 64.9055 98.9534 65.3599 98.6348 65.4293L93.8904 66.4629C93.7737 66.4883 93.6827 66.5798 93.658 66.6966L92.6433 71.4905C92.5753 71.8115 92.1172 71.8115 92.0493 71.4905L91.0346 66.6966C91.0099 66.5798 90.9189 66.4883 90.8022 66.4629L86.0578 65.4293C85.7392 65.3599 85.7392 64.9055 86.0578 64.8361L90.8022 63.8025C90.9189 63.7771 91.0099 63.6856 91.0346 63.5688L92.0493 58.7748Z" fill="#B1BDD0"/>
<path d="M237.338 106.343C237.461 105.765 238.285 105.765 238.408 106.343L239.473 111.377C239.518 111.588 239.681 111.752 239.891 111.798L244.888 112.886C245.461 113.011 245.461 113.829 244.888 113.954L239.891 115.043C239.681 115.089 239.518 115.253 239.473 115.464L238.408 120.498C238.285 121.075 237.461 121.075 237.338 120.498L236.273 115.464C236.228 115.253 236.065 115.089 235.855 115.043L230.858 113.954C230.285 113.829 230.285 113.011 230.858 112.886L235.855 111.798C236.065 111.752 236.228 111.588 236.273 111.377L237.338 106.343Z" fill="#B1BDD0"/>
<path d="M259.367 187.056L261.04 194.961L268.832 196.659L261.04 198.356L259.367 206.262L257.693 198.356L249.901 196.659L257.693 194.961L259.367 187.056Z" fill="#B1BDD0"/>
<path d="M125.739 66.3564C132.687 64.4733 139.681 68.3087 141.438 74.7914C143.195 81.2741 139.095 88.1163 132.148 89.9994C125.2 91.8825 118.206 88.0471 116.449 81.5644C114.692 75.0816 118.792 68.2395 125.739 66.3564Z" fill="#B1BDD0" stroke="#1E1E1E" stroke-width="2"/>
<path d="M86.0464 221.13L86.5236 220.535C90.4215 215.677 91.6938 209.247 90.2675 203.184C84.9376 180.527 74.7425 123.655 99.0474 97.6215C108.766 87.2119 116.449 79.9624 128.821 76.5675C148.402 71.1949 162.374 72.3233 178.187 84.1616C202.977 102.72 210.786 142.972 228.261 170.873C230.632 174.659 234.557 177.134 238.927 178.064C240.74 178.449 242.504 179.082 243.993 180.186C245.309 181.16 246.835 182.492 247.589 183.875C247.846 184.347 248.061 184.912 248.239 185.499C249.017 188.066 248.759 190.873 247.589 193.287C246.193 196.167 243.512 198.159 240.68 199.651L238.499 200.8L232.015 204.215C232.015 204.215 199.957 220.655 176.017 227.712C149.919 235.405 118.951 243.499 90.9304 241.113C88.7293 240.926 86.6952 239.899 85.1645 238.306C83.459 236.532 82.5064 234.166 82.5064 231.704L82.5064 230.841C82.5064 230.213 82.5572 229.586 82.6582 228.965L82.7156 228.613C83.1618 225.873 84.3093 223.295 86.0464 221.13Z" fill="#1E1E1E" stroke="#B1BDD0" stroke-width="2"/>
<ellipse cx="166.077" cy="211.835" rx="74.6222" ry="13.0487" transform="rotate(-15.4595 166.077 211.835)" fill="#B1BDD0"/>
<path d="M149.5 206L177.774 196.889C179.96 204.366 181.346 216 171.661 219.717C161.975 223.434 152.604 215.827 149.5 206Z" fill="#1E1E1E" stroke="#B1BDD0" stroke-width="2"/>
</svg>
