<svg width="44" height="44" viewBox="0 0 44 44" fill="none" xmlns="http://www.w3.org/2000/svg">
<path d="M0 22C0 9.84974 9.84974 0 22 0C34.1503 0 44 9.84974 44 22C44 34.1503 34.1503 44 22 44C9.84974 44 0 34.1503 0 22Z" fill="#F7F7F7"/>
<path d="M25.7499 31C25.7499 31.1989 25.6709 31.3897 25.5303 31.5303C25.3896 31.671 25.1988 31.75 24.9999 31.75H18.9999C18.801 31.75 18.6103 31.671 18.4696 31.5303C18.3289 31.3897 18.2499 31.1989 18.2499 31C18.2499 30.8011 18.3289 30.6103 18.4696 30.4697C18.6103 30.329 18.801 30.25 18.9999 30.25H24.9999C25.1988 30.25 25.3896 30.329 25.5303 30.4697C25.6709 30.6103 25.7499 30.8011 25.7499 31ZM30.7984 28C30.6682 28.2292 30.4793 28.4196 30.2511 28.5514C30.0228 28.6833 29.7635 28.7518 29.4999 28.75H14.4999C14.2362 28.7496 13.9773 28.6798 13.7492 28.5475C13.5212 28.4151 13.332 28.225 13.2008 27.9963C13.0696 27.7676 13.001 27.5083 13.002 27.2446C13.0029 26.9809 13.0733 26.7222 13.2062 26.4944C13.7265 25.5981 14.4999 23.0631 14.4999 19.75C14.4999 17.7609 15.2901 15.8532 16.6966 14.4467C18.1032 13.0402 20.0108 12.25 21.9999 12.25C23.9891 12.25 25.8967 13.0402 27.3032 14.4467C28.7098 15.8532 29.4999 17.7609 29.4999 19.75C29.4999 23.0622 30.2743 25.5981 30.7946 26.4944C30.9288 26.7225 30.9997 26.9822 31.0002 27.2468C31.0007 27.5114 30.9307 27.7714 30.7974 28H30.7984ZM29.4999 27.25C28.7752 26.0059 27.9999 23.1297 27.9999 19.75C27.9999 18.1587 27.3678 16.6326 26.2426 15.5074C25.1174 14.3821 23.5912 13.75 21.9999 13.75C20.4086 13.75 18.8825 14.3821 17.7573 15.5074C16.6321 16.6326 15.9999 18.1587 15.9999 19.75C15.9999 23.1306 15.2237 26.0069 14.4999 27.25H29.4999Z" fill="#222222"/>
</svg>
