<svg width="10" height="7" viewBox="0 0 10 7" fill="none" xmlns="http://www.w3.org/2000/svg">
<path d="M9.37493 1.1875V3.6875C9.37493 3.77038 9.34201 3.84987 9.2834 3.90847C9.2248 3.96708 9.14531 4 9.06243 4C8.97955 4 8.90006 3.96708 8.84146 3.90847C8.78285 3.84987 8.74993 3.77038 8.74993 3.6875V1.9418L5.53352 5.15859C5.5045 5.18765 5.47004 5.2107 5.4321 5.22643C5.39416 5.24215 5.3535 5.25025 5.31243 5.25025C5.27136 5.25025 5.2307 5.24215 5.19276 5.22643C5.15482 5.2107 5.12036 5.18765 5.09134 5.15859L3.74993 3.8168L1.15852 6.40859C1.09989 6.46723 1.02036 6.50017 0.93743 6.50017C0.854503 6.50017 0.774974 6.46723 0.716336 6.40859C0.657698 6.34996 0.624756 6.27043 0.624756 6.1875C0.624756 6.10457 0.657698 6.02504 0.716336 5.96641L3.52884 3.15391C3.55786 3.12485 3.59232 3.1018 3.63026 3.08608C3.6682 3.07035 3.70886 3.06225 3.74993 3.06225C3.791 3.06225 3.83166 3.07035 3.8696 3.08608C3.90754 3.1018 3.942 3.12485 3.97102 3.15391L5.31243 4.4957L8.30813 1.5H6.56243C6.47955 1.5 6.40006 1.46708 6.34146 1.40847C6.28285 1.34987 6.24993 1.27038 6.24993 1.1875C6.24993 1.10462 6.28285 1.02513 6.34146 0.966529C6.40006 0.907924 6.47955 0.875 6.56243 0.875H9.06243C9.14531 0.875 9.2248 0.907924 9.2834 0.966529C9.34201 1.02513 9.37493 1.10462 9.37493 1.1875Z" fill="#00C950"/>
</svg>
