<svg width="306" height="306" viewBox="0 0 306 306" fill="none" xmlns="http://www.w3.org/2000/svg">
<circle cx="151.634" cy="162.562" r="95.8982" fill="#F7F7F7"/>
<circle cx="61.7464" cy="97.8105" r="6.01071" fill="#F7F7F7"/>
<circle cx="219.938" cy="58.7408" r="11.2018" fill="#F7F7F7"/>
<circle cx="63.659" cy="224.309" r="10.6554" fill="#F7F7F7"/>
<circle cx="254.363" cy="213.926" r="10.6554" fill="#F7F7F7"/>
<circle cx="233.598" cy="225.948" r="5.19107" fill="#F7F7F7"/>
<path d="M259.367 181.048L261.04 188.953L268.833 190.651L261.04 192.348L259.367 200.254L257.694 192.348L249.901 190.651L257.694 188.953L259.367 181.048Z" fill="#B1BDD0"/>
<path d="M249.36 100.336C249.482 99.7584 250.307 99.7584 250.429 100.336L251.495 105.37C251.539 105.581 251.703 105.745 251.913 105.791L256.909 106.88C257.483 107.005 257.483 107.822 256.909 107.947L251.913 109.036C251.703 109.082 251.539 109.246 251.495 109.457L250.429 114.491C250.307 115.069 249.482 115.069 249.36 114.491L248.294 109.457C248.25 109.246 248.086 109.082 247.876 109.036L242.879 107.947C242.306 107.822 242.306 107.005 242.879 106.88L247.876 105.791C248.086 105.745 248.25 105.581 248.294 105.37L249.36 100.336Z" fill="#B1BDD0"/>
<path d="M50.9397 166.454C51.062 165.876 51.8866 165.876 52.0088 166.454L53.8354 175.083C53.88 175.294 54.0437 175.458 54.2537 175.504L62.7941 177.365C63.3676 177.489 63.3676 178.307 62.7941 178.432L54.2537 180.293C54.0437 180.339 53.88 180.503 53.8354 180.714L52.0088 189.343C51.8866 189.921 51.062 189.921 50.9397 189.343L49.1131 180.714C49.0685 180.503 48.9048 180.339 48.6948 180.293L40.1544 178.432C39.5809 178.307 39.5809 177.489 40.1544 177.365L48.6948 175.504C48.9048 175.458 49.0685 175.294 49.1131 175.083L50.9397 166.454Z" fill="#B1BDD0"/>
<path d="M84.9834 74.6073C84.6666 74.5399 84.6666 74.0878 84.9834 74.0204L89.7732 73.0019C89.8887 72.9773 89.979 72.8873 90.004 72.772L91.0353 68.0159C91.1037 67.7007 91.5533 67.7007 91.6217 68.0159L92.653 72.772C92.678 72.8873 92.7684 72.9773 92.8838 73.0019L97.6736 74.0204C97.9904 74.0878 97.9904 74.5399 97.6736 74.6073L92.8838 75.6259C92.7684 75.6504 92.678 75.7404 92.653 75.8557L91.6217 80.6118C91.5533 80.927 91.1037 80.927 91.0353 80.6118L90.004 75.8557C89.979 75.7404 89.8887 75.6504 89.7732 75.6259L84.9834 74.6073Z" fill="#B1BDD0"/>
<path fill-rule="evenodd" clip-rule="evenodd" d="M171.578 177.228C199.143 177.228 221.489 154.883 221.489 127.318C221.489 99.7527 199.143 77.4069 171.578 77.4069C144.014 77.4069 121.668 99.7527 121.668 127.318C121.668 154.883 144.014 177.228 171.578 177.228ZM171.578 179.228C200.248 179.228 223.489 155.987 223.489 127.318C223.489 98.6482 200.248 75.4069 171.578 75.4069C142.909 75.4069 119.668 98.6482 119.668 127.318C119.668 155.987 142.909 179.228 171.578 179.228Z" fill="#B1BDD0"/>
<path fill-rule="evenodd" clip-rule="evenodd" d="M140.868 197.265L148.639 184.663L149.178 183.788L150.881 184.838L150.542 185.388L142.57 198.315L140.868 197.265Z" fill="#B1BDD0"/>
<path fill-rule="evenodd" clip-rule="evenodd" d="M131.417 191.408L139.119 179.854L139.43 179.388L141.094 180.497L140.838 180.88L133.081 192.517L131.417 191.408Z" fill="#B1BDD0"/>
<path fill-rule="evenodd" clip-rule="evenodd" d="M91.3129 240.487L126.232 192.182L128.254 192.916L127.728 193.638L93.2855 240.863L92.9231 241.36L91.3129 240.487Z" fill="#B1BDD0"/>
<path fill-rule="evenodd" clip-rule="evenodd" d="M114.174 255.61L114.604 254.778L142.22 201.315L142.585 200.609L144.362 201.527L116.201 256.252L114.174 255.61Z" fill="#B1BDD0"/>
<path fill-rule="evenodd" clip-rule="evenodd" d="M131.516 192.852C130.231 192.706 128.934 192.966 127.804 193.595L127.728 193.638L127.205 193.929L128.254 192.916L126.232 192.182L126.831 191.848C128.325 191.016 130.042 190.672 131.741 190.865C132.435 190.944 133.116 191.111 133.767 191.362L134.772 191.75L135.096 191.858C137.172 192.55 139.058 193.715 140.605 195.262L141.734 196.392C142.252 196.909 142.703 197.487 143.08 198.114C143.52 198.848 143.852 199.641 144.067 200.47L144.441 201.91L142.505 202.412L142.22 201.315L142.131 200.972C141.965 200.329 141.706 199.713 141.365 199.143C141.072 198.657 140.722 198.207 140.32 197.806L139.191 196.676C137.863 195.349 136.245 194.349 134.464 193.755L134.096 193.632L133.048 193.228C132.555 193.038 132.04 192.912 131.516 192.852Z" fill="#B1BDD0"/>
<path fill-rule="evenodd" clip-rule="evenodd" d="M109.437 256.141C110.954 256.093 112.446 255.748 113.829 255.126L114.604 254.778L115.381 254.428L116.201 256.252L114.65 256.95C113.028 257.68 111.278 258.084 109.5 258.14C108.12 258.183 106.74 258.016 105.41 257.643L104.339 257.344L103.963 257.216C100.724 256.117 97.7744 254.302 95.3332 251.907L93.9839 250.583C92.8145 249.435 91.9381 248.024 91.4286 246.466C90.7948 244.53 90.7545 242.447 91.3129 240.487L92.4794 239.678L93.4413 240.316L93.2855 240.863L93.2363 241.035C92.7872 242.612 92.8196 244.287 93.3294 245.844C93.7392 247.097 94.4441 248.232 95.3847 249.155L96.734 250.479C98.9607 252.664 101.651 254.32 104.605 255.322L104.93 255.432L105.949 255.717C107.084 256.035 108.26 256.177 109.437 256.141Z" fill="#B1BDD0"/>
<path fill-rule="evenodd" clip-rule="evenodd" d="M125.261 194.148L92.4794 239.678V245.87L94.3007 248.055L98.3073 253.519L102.678 255.34L108.142 257.161H112.148L115.427 255.34L143.837 201.797L142.016 197.79L139.831 195.241L137.281 194.148L134.731 192.327H129.996L126.718 193.055L125.261 194.148ZM93.2855 240.863L127.728 193.638L127.804 193.595C128.934 192.966 130.231 192.706 131.516 192.852C132.04 192.912 132.555 193.038 133.048 193.228L134.096 193.632L134.464 193.755C136.245 194.349 137.863 195.349 139.191 196.676L140.32 197.806C140.722 198.207 141.072 198.657 141.365 199.143C141.706 199.713 141.965 200.329 142.131 200.972L142.22 201.315L114.604 254.778L113.829 255.126C112.446 255.748 110.954 256.093 109.437 256.141C108.26 256.177 107.084 256.035 105.949 255.717L104.93 255.432L104.605 255.322C101.651 254.32 98.9607 252.664 96.734 250.479L95.3847 249.155C94.4441 248.232 93.7392 247.097 93.3294 245.844C92.8196 244.287 92.7872 242.612 93.2363 241.035L93.2855 240.863Z" fill="#B1BDD0"/>
<path d="M131.516 192.852C130.231 192.706 128.934 192.966 127.804 193.595L127.728 193.638L93.2855 240.863L93.2363 241.035C92.7872 242.612 92.8196 244.287 93.3294 245.844C93.7392 247.097 94.4441 248.232 95.3847 249.155L96.734 250.479C98.9607 252.664 101.651 254.32 104.605 255.322L104.93 255.432L105.949 255.717C107.084 256.035 108.26 256.177 109.437 256.141C110.954 256.093 112.446 255.748 113.829 255.126L114.604 254.778L142.22 201.315L142.131 200.972C141.965 200.329 141.706 199.713 141.365 199.143C141.072 198.657 140.722 198.207 140.32 197.806L139.191 196.676C137.863 195.349 136.245 194.349 134.464 193.755L134.096 193.632L133.048 193.228C132.555 193.038 132.04 192.912 131.516 192.852Z" fill="#B1BDD0"/>
<path fill-rule="evenodd" clip-rule="evenodd" d="M171.578 187.064C204.575 187.064 231.325 160.315 231.325 127.318C231.325 94.3207 204.575 67.5713 171.578 67.5713C138.581 67.5713 111.832 94.3207 111.832 127.318C111.832 153.822 129.09 176.295 152.982 184.113C155.073 184.798 157.215 185.37 159.401 185.822C163.333 186.636 167.406 187.064 171.578 187.064ZM171.578 179.228C200.248 179.228 223.489 155.987 223.489 127.318C223.489 98.6482 200.248 75.4069 171.578 75.4069C142.909 75.4069 119.668 98.6482 119.668 127.318C119.668 155.987 142.909 179.228 171.578 179.228Z" fill="#B1BDD0"/>
<path fill-rule="evenodd" clip-rule="evenodd" d="M171.578 189.064L159.401 185.822C157.215 185.37 155.073 184.798 152.982 184.113L140.838 180.88L140.844 180.883C143.338 182.318 145.942 183.583 148.639 184.663L149.178 183.788L150.881 184.838L150.542 185.388C150.951 185.536 151.362 185.68 151.775 185.82C157.991 187.924 164.652 189.064 171.578 189.064Z" fill="#B1BDD0"/>
<path d="M171.578 189.064C205.68 189.064 233.325 161.419 233.325 127.318C233.325 93.2161 205.68 65.5713 171.578 65.5713C137.477 65.5713 109.832 93.2161 109.832 127.318C109.832 149.512 121.541 168.97 139.119 179.854L139.43 179.388L141.094 180.497L140.838 180.88L152.982 184.113C129.09 176.295 111.832 153.822 111.832 127.318C111.832 94.3207 138.581 67.5713 171.578 67.5713C204.575 67.5713 231.325 94.3207 231.325 127.318C231.325 160.315 204.575 187.064 171.578 187.064C167.406 187.064 163.333 186.636 159.401 185.822L171.578 189.064Z" fill="#B1BDD0"/>
<path fill-rule="evenodd" clip-rule="evenodd" d="M171.578 179.228C200.248 179.228 223.489 155.987 223.489 127.318C223.489 98.6482 200.248 75.4069 171.578 75.4069C142.909 75.4069 119.668 98.6482 119.668 127.318C119.668 155.987 142.909 179.228 171.578 179.228ZM140.838 180.88L140.844 180.883C143.338 182.318 145.942 183.583 148.639 184.663C149.268 184.915 149.903 185.156 150.542 185.388C150.951 185.536 151.362 185.68 151.775 185.82C157.991 187.924 164.652 189.064 171.578 189.064L159.401 185.822C157.215 185.37 155.073 184.798 152.982 184.113L140.838 180.88ZM171.578 177.228C199.143 177.228 221.489 154.883 221.489 127.318C221.489 99.7527 199.143 77.4069 171.578 77.4069C144.014 77.4069 121.668 99.7527 121.668 127.318C121.668 154.883 144.014 177.228 171.578 177.228Z" fill="#B1BDD0"/>
</svg>

