<svg width="309" height="306" viewBox="0 0 309 306" fill="none" xmlns="http://www.w3.org/2000/svg">
<path d="M260 165C260 218.019 217.02 261 164 261C110.981 261 68.0005 218.019 68.0005 165C68.0005 111.981 110.981 69 164 69C217.02 69 260 111.981 260 165Z" fill="#F7F7F7"/>
<circle cx="56.2824" cy="137.701" r="21.8571" fill="#F7F7F7"/>
<circle cx="98.3575" cy="50.272" r="13.6607" fill="#F7F7F7"/>
<circle cx="248.899" cy="68.0313" r="10.6554" fill="#F7F7F7"/>
<circle cx="245.62" cy="228.134" r="5.19107" fill="#F7F7F7"/>
<path d="M188.653 74.1461C188.246 74.0594 188.246 73.4781 188.653 73.3915L194.811 72.0819C194.96 72.0504 195.076 71.9347 195.108 71.7864L196.434 65.6714C196.522 65.2661 197.1 65.2661 197.188 65.6714L198.514 71.7864C198.546 71.9347 198.662 72.0504 198.811 72.0819L204.969 73.3915C205.376 73.4781 205.376 74.0594 204.969 74.1461L198.811 75.4556C198.662 75.4872 198.546 75.6029 198.514 75.7512L197.188 81.8661C197.1 82.2714 196.522 82.2714 196.434 81.8661L195.108 75.7512C195.076 75.6029 194.96 75.4872 194.811 75.4556L188.653 74.1461Z" fill="#B1BDD0"/>
<path d="M50.6604 177.1C50.7827 176.522 51.6073 176.522 51.7296 177.1L53.5562 185.729C53.6007 185.94 53.7644 186.104 53.9744 186.15L62.5149 188.011C63.0883 188.135 63.0883 188.953 62.5149 189.078L53.9744 190.939C53.7644 190.985 53.6007 191.149 53.5562 191.36L51.7296 199.989C51.6073 200.567 50.7827 200.567 50.6604 199.989L48.8338 191.36C48.7893 191.149 48.6256 190.985 48.4155 190.939L39.8751 189.078C39.3016 188.953 39.3016 188.135 39.8751 188.011L48.4155 186.15C48.6256 186.104 48.7893 185.94 48.8338 185.729L50.6604 177.1Z" fill="#B1BDD0"/>
<path d="M188.89 252.424C189.012 251.846 189.837 251.846 189.959 252.424L191.024 257.458C191.069 257.669 191.233 257.833 191.443 257.879L196.439 258.968C197.013 259.092 197.013 259.91 196.439 260.035L191.443 261.124C191.233 261.17 191.069 261.334 191.024 261.545L189.959 266.579C189.837 267.157 189.012 267.157 188.89 266.579L187.824 261.545C187.78 261.334 187.616 261.17 187.406 261.124L182.409 260.035C181.836 259.91 181.836 259.092 182.409 258.968L187.406 257.879C187.616 257.833 187.78 257.669 187.824 257.458L188.89 252.424Z" fill="#B1BDD0"/>
<path d="M266.383 106.19L199.507 93.3751C196.543 92.8071 193.68 94.7494 193.112 97.7133L175.977 187.131C175.654 188.818 176.143 190.558 177.296 191.83L208.373 226.109C210.178 228.1 213.162 228.483 215.411 227.013L251.632 203.343C252.873 202.532 253.731 201.252 254.01 199.797L270.721 112.585C271.289 109.621 269.347 106.758 266.383 106.19Z" fill="#B1BDD0"/>
<path d="M219.059 124.86C214.111 123.803 209.25 126.917 208.204 131.817C207.359 135.772 206.921 145.493 220.329 158.28C220.569 158.507 220.868 158.664 221.191 158.733C221.515 158.802 221.852 158.781 222.164 158.672C239.626 152.48 243.199 143.429 244.044 139.474C245.091 134.574 241.927 129.746 236.979 128.689C232.031 127.632 226.87 132.151 226.87 132.151C226.87 132.151 224.007 125.918 219.059 124.86Z" fill="#F7F7F7"/>
<circle cx="213.653" cy="203.818" r="7.10357" fill="#F7F7F7"/>
<path d="M140.903 64.6764L141.219 64.5712C144.489 63.571 148.005 65.3007 149.183 68.5522L190.542 182.74C191.102 184.285 191.051 185.982 190.407 187.486L190.27 187.784L163.783 241.907C162.429 244.673 159.322 246.088 156.366 245.326L156.081 245.245L94.5014 226.364C92.5596 225.769 91.0102 224.295 90.3184 222.386L47.8883 105.241C46.6728 101.885 48.4082 98.1786 51.7645 96.9627L140.903 64.6764Z" fill="#F7F7F7" stroke="#B1BDD0" stroke-width="2"/>
<path d="M94.9614 118.03C87.7844 120.846 84.2247 128.89 87.0135 135.997C89.2647 141.734 96.882 154.457 124.672 159.435C125.169 159.522 125.68 159.47 126.149 159.286C126.618 159.102 127.028 158.792 127.334 158.391C144.321 135.842 141.253 121.333 139.002 115.596C136.213 108.49 128.132 105.013 120.955 107.83C113.778 110.646 111.018 120.728 111.018 120.728C111.018 120.728 102.138 115.213 94.9614 118.03Z" fill="#B1BDD0"/>
<circle cx="147.262" cy="214.474" r="9.01607" fill="#B1BDD0"/>
</svg>
