<svg width="116" height="96" viewBox="0 0 116 96" fill="none" xmlns="http://www.w3.org/2000/svg">
<rect x="23.5" y="16" width="72" height="72" rx="36" fill="#00C950"/>
<rect x="23.5" y="16" width="72" height="72" rx="36" stroke="#E6F9ED" stroke-width="16"/>
<path d="M69.0307 47.2806L57.0307 59.2806C56.961 59.3503 56.8783 59.4057 56.7873 59.4434C56.6962 59.4812 56.5986 59.5006 56.5001 59.5006C56.4015 59.5006 56.3039 59.4812 56.2128 59.4434C56.1218 59.4057 56.0391 59.3503 55.9694 59.2806L50.7194 54.0306C50.5787 53.8899 50.4996 53.699 50.4996 53.5C50.4996 53.301 50.5787 53.1101 50.7194 52.9694C50.8602 52.8286 51.051 52.7496 51.2501 52.7496C51.4491 52.7496 51.6399 52.8286 51.7807 52.9694L56.5001 57.6897L67.9694 46.2194C68.1102 46.0786 68.301 45.9996 68.5001 45.9996C68.6991 45.9996 68.8899 46.0786 69.0307 46.2194C69.1714 46.3601 69.2505 46.551 69.2505 46.75C69.2505 46.949 69.1714 47.1399 69.0307 47.2806Z" fill="#F7F7F7"/>
<path d="M11.7237 1.51082C12.0484 0.878969 12.9516 0.878969 13.2763 1.51082L16.4448 7.67775C16.5281 7.83988 16.6601 7.97186 16.8223 8.05516L22.9892 11.2237C23.621 11.5484 23.621 12.4516 22.9892 12.7763L16.8223 15.9448C16.6601 16.0281 16.5281 16.1601 16.4448 16.3223L13.2763 22.4892C12.9516 23.121 12.0484 23.121 11.7237 22.4892L8.55516 16.3223C8.47186 16.1601 8.33988 16.0281 8.17775 15.9448L2.01082 12.7763C1.37897 12.4516 1.37897 11.5484 2.01082 11.2237L8.17775 8.05516C8.33988 7.97186 8.47186 7.83988 8.55516 7.67775L11.7237 1.51082Z" fill="#8B51DF"/>
<path d="M15.9825 81.0072C16.1989 80.586 16.8011 80.586 17.0175 81.0072L19.1299 85.1185C19.1854 85.2266 19.2734 85.3146 19.3815 85.3701L23.4928 87.4825C23.914 87.6989 23.914 88.3011 23.4928 88.5175L19.3815 90.6299C19.2734 90.6854 19.1854 90.7734 19.1299 90.8815L17.0175 94.9928C16.8011 95.414 16.1989 95.414 15.9825 94.9928L13.8701 90.8815C13.8146 90.7734 13.7266 90.6854 13.6185 90.6299L9.50721 88.5175C9.08598 88.3011 9.08598 87.6989 9.50721 87.4825L13.6185 85.3701C13.7266 85.3146 13.8146 85.2266 13.8701 85.1185L15.9825 81.0072Z" fill="#8B51DF"/>
<path d="M101.112 18.7554C101.274 18.4395 101.726 18.4395 101.888 18.7554L103.472 21.8389C103.514 21.9199 103.58 21.9859 103.661 22.0276L106.745 23.6119C107.061 23.7742 107.061 24.2258 106.745 24.3881L103.661 25.9724C103.58 26.0141 103.514 26.0801 103.472 26.1611L101.888 29.2446C101.726 29.5605 101.274 29.5605 101.112 29.2446L99.5276 26.1611C99.4859 26.0801 99.4199 26.0141 99.3389 25.9724L96.2554 24.3881C95.9395 24.2258 95.9395 23.7742 96.2554 23.6119L99.3389 22.0276C99.4199 21.9859 99.4859 21.9199 99.5276 21.8389L101.112 18.7554Z" fill="#8B51DF"/>
<path d="M106.982 65.0072C107.199 64.586 107.801 64.586 108.018 65.0072L110.13 69.1185C110.185 69.2266 110.273 69.3146 110.382 69.3701L114.493 71.4825C114.914 71.6989 114.914 72.3011 114.493 72.5175L110.382 74.6299C110.273 74.6854 110.185 74.7734 110.13 74.8815L108.018 78.9928C107.801 79.414 107.199 79.414 106.982 78.9928L104.87 74.8815C104.815 74.7734 104.727 74.6854 104.618 74.6299L100.507 72.5175C100.086 72.3011 100.086 71.6989 100.507 71.4825L104.618 69.3701C104.727 69.3146 104.815 69.2266 104.87 69.1185L106.982 65.0072Z" fill="#FDD324"/>
</svg>
