<svg width="24" height="24" viewBox="0 0 24 24" fill="none" xmlns="http://www.w3.org/2000/svg">
<path fill-rule="evenodd" clip-rule="evenodd" d="M5.81619 0H14.3994L21.5994 7.2V20.8755C21.5994 22.6027 20.1047 24 18.2636 24H5.7416C3.8941 24 2.39941 22.6027 2.39941 20.8755V3.1244C2.39938 1.39727 3.96865 0 5.81619 0Z" fill="#D92D20"/>
<path d="M14.4148 4.896V0L21.5994 7.2H16.8097C14.6543 7.2 14.315 5.664 14.4148 4.896Z" fill="white" fill-opacity="0.3"/>
<path d="M7.04983 19.2002V15.2729H8.59926C8.89713 15.2729 9.1509 15.3298 9.36056 15.4436C9.57022 15.5561 9.73002 15.7127 9.83996 15.9134C9.95118 16.1128 10.0068 16.343 10.0068 16.6037C10.0068 16.8645 9.95054 17.0947 9.83804 17.2941C9.72554 17.4935 9.56255 17.6488 9.34905 17.7601C9.13683 17.8713 8.87987 17.9269 8.57817 17.9269H7.5906V17.2615H8.44394C8.60374 17.2615 8.73541 17.234 8.83897 17.179C8.94379 17.1228 9.02178 17.0454 9.07291 16.947C9.12533 16.8473 9.15154 16.7329 9.15154 16.6037C9.15154 16.4733 9.12533 16.3596 9.07291 16.2624C9.02178 16.164 8.94379 16.0879 8.83897 16.0342C8.73414 15.9792 8.60118 15.9518 8.4401 15.9518H7.88016V19.2002H7.04983ZM11.9383 19.2002H10.5461V15.2729H11.9498C12.3448 15.2729 12.6849 15.3515 12.97 15.5088C13.2551 15.6648 13.4743 15.8891 13.6277 16.1819C13.7824 16.4746 13.8598 16.8249 13.8598 17.2327C13.8598 17.6418 13.7824 17.9934 13.6277 18.2874C13.4743 18.5814 13.2538 18.8071 12.9661 18.9643C12.6798 19.1216 12.3372 19.2002 11.9383 19.2002ZM11.3764 18.4888H11.9038C12.1492 18.4888 12.3557 18.4453 12.5232 18.3584C12.6919 18.2702 12.8185 18.134 12.9029 17.9499C12.9885 17.7645 13.0313 17.5255 13.0313 17.2327C13.0313 16.9425 12.9885 16.7054 12.9029 16.5213C12.8185 16.3372 12.6926 16.2017 12.5251 16.1148C12.3576 16.0278 12.1512 15.9844 11.9057 15.9844H11.3764V18.4888ZM14.4748 19.2002V15.2729H17.0751V15.9575H15.3052V16.8933H16.9025V17.5779H15.3052V19.2002H14.4748Z" fill="#FEFEFE"/>
</svg>
