<svg width="44" height="44" viewBox="0 0 44 44" fill="none" xmlns="http://www.w3.org/2000/svg">
<rect width="44" height="44" rx="16" fill="#022A68"/>
<path d="M28 19C28 21.6728 25.7059 23.8853 22.75 24.2087V25C22.75 25.1989 22.671 25.3897 22.5303 25.5303C22.3897 25.671 22.1989 25.75 22 25.75C21.8011 25.75 21.6103 25.671 21.4697 25.5303C21.329 25.3897 21.25 25.1989 21.25 25V23.5C21.25 23.3011 21.329 23.1103 21.4697 22.9697C21.6103 22.829 21.8011 22.75 22 22.75C24.4816 22.75 26.5 21.0681 26.5 19C26.5 16.9319 24.4816 15.25 22 15.25C19.5184 15.25 17.5 16.9319 17.5 19C17.5 19.1989 17.421 19.3897 17.2803 19.5303C17.1397 19.671 16.9489 19.75 16.75 19.75C16.5511 19.75 16.3603 19.671 16.2197 19.5303C16.079 19.3897 16 19.1989 16 19C16 16.105 18.6916 13.75 22 13.75C25.3084 13.75 28 16.105 28 19ZM22 28C21.7033 28 21.4133 28.088 21.1666 28.2528C20.92 28.4176 20.7277 28.6519 20.6142 28.926C20.5006 29.2001 20.4709 29.5017 20.5288 29.7926C20.5867 30.0836 20.7296 30.3509 20.9393 30.5607C21.1491 30.7704 21.4164 30.9133 21.7074 30.9712C21.9983 31.0291 22.2999 30.9994 22.574 30.8858C22.8481 30.7723 23.0824 30.58 23.2472 30.3334C23.412 30.0867 23.5 29.7967 23.5 29.5C23.5 29.1022 23.342 28.7206 23.0607 28.4393C22.7794 28.158 22.3978 28 22 28Z" fill="#F7F7F7"/>
</svg>
