<svg width="44" height="44" viewBox="0 0 44 44" fill="none" xmlns="http://www.w3.org/2000/svg">
<path d="M0 22C0 9.84974 9.84974 0 22 0C34.1503 0 44 9.84974 44 22C44 34.1503 34.1503 44 22 44C9.84974 44 0 34.1503 0 22Z" fill="#F7F7F7"/>
<path d="M27.0306 22.5306L19.5306 30.0306C19.4609 30.1003 19.3781 30.1556 19.2871 30.1933C19.1961 30.231 19.0985 30.2504 18.9999 30.2504C18.9014 30.2504 18.8038 30.231 18.7128 30.1933C18.6217 30.1556 18.539 30.1003 18.4693 30.0306C18.3996 29.9609 18.3443 29.8782 18.3066 29.7872C18.2689 29.6961 18.2495 29.5985 18.2495 29.5C18.2495 29.4015 18.2689 29.3039 18.3066 29.2128C18.3443 29.1218 18.3996 29.0391 18.4693 28.9694L25.4396 22L18.4693 15.0306C18.3286 14.8899 18.2495 14.699 18.2495 14.5C18.2495 14.301 18.3286 14.1101 18.4693 13.9694C18.61 13.8286 18.8009 13.7496 18.9999 13.7496C19.199 13.7496 19.3898 13.8286 19.5306 13.9694L27.0306 21.4694C27.1003 21.539 27.1556 21.6217 27.1933 21.7128C27.2311 21.8038 27.2505 21.9014 27.2505 22C27.2505 22.0986 27.2311 22.1962 27.1933 22.2872C27.1556 22.3783 27.1003 22.461 27.0306 22.5306Z" fill="#222222"/>
</svg>
